<?xml version="1.0" encoding="UTF-8"?>
<svg version="1.1" xmlns="http://www.w3.org/2000/svg" width="320" height="320">
<path d="M0 0 C3.78125 0.7578125 3.78125 0.7578125 5.75 2.9375 C8.43833365 9.52391743 7.48234863 15.49792793 5.0625 22.0625 C1.55914601 29.82993628 -4.20586393 35.05460844 -11 40 C-10.38125 40.474375 -9.7625 40.94875 -9.125 41.4375 C-6.59291054 44.490902 -6.26690813 46.6240305 -5.55859375 50.44140625 C-4.73716546 54.20389248 -3.36474723 57.70908297 -1.9921875 61.30078125 C-1.09333264 63.74609113 -0.38659574 66.18024924 0.3125 68.6875 C3.22452812 77.40801201 10.34956813 82.52109449 18 87 C22.06255285 88.98603794 26.20514634 90.75248886 30.375 92.5 C40.72500733 96.86916368 50.94951428 101.31089834 59.875 108.25 C60.885625 109.02214844 61.89625 109.79429687 62.9375 110.58984375 C64.93565204 112.16236902 66.91596433 113.7579107 68.875 115.37890625 C78.0040649 122.78438468 87.98268671 128.06697305 98.34179688 133.56689453 C104.23844924 136.74593103 109.96901633 140.20948816 115.71875 143.64453125 C118.25325112 145.15047626 120.79772983 146.63861606 123.34375 148.125 C152.40168922 165.11772559 152.40168922 165.11772559 163.9921875 174.39453125 C170.97071027 179.97463409 178.13215507 184.15188293 186.15283203 188.00390625 C192.03995452 190.88624592 197.33970528 194.33970528 202 199 C202.17830165 200.93208837 202.26793417 202.87271372 202.3125 204.8125 C202.34988281 205.87082031 202.38726562 206.92914063 202.42578125 208.01953125 C202 211 202 211 200.66796875 213.32421875 C195.16307643 216.78190368 189.42760787 216.44228553 183.17822266 215.30371094 C178.84983916 214.30322842 174.58387215 213.09229152 170.3125 211.875 C168.86047271 211.47753128 167.40799908 211.08168945 165.95507812 210.6875 C154.35314752 207.50563363 154.35314752 207.50563363 149.02978516 205.61865234 C139.3835345 202.23984092 130.41597692 201.08900399 120.20458984 200.92089844 C117.70819522 200.87421829 115.21730057 200.77482703 112.72265625 200.671875 C111.12247484 200.62969977 109.52221098 200.59052087 107.921875 200.5546875 C106.81413727 200.5066951 106.81413727 200.5066951 105.684021 200.45773315 C103.33397033 200.38800109 103.33397033 200.38800109 100 201 C97.57942675 203.32965654 97.57942675 203.32965654 96 206 C94.0703125 207.29296875 94.0703125 207.29296875 92.125 208.1875 C91.48820313 208.49042969 90.85140625 208.79335937 90.1953125 209.10546875 C88 210 88 210 85.05859375 210.796875 C81.35515946 212.25365375 79.59967379 214.13031175 76.9375 217.0625 C71.84587759 222.6689152 71.84587759 222.6689152 67 223 C64.39453125 222.94921875 64.39453125 222.94921875 61.8125 222.6875 C60.95269531 222.60886719 60.09289062 222.53023437 59.20703125 222.44921875 C57 222 57 222 55 220 C53.35 221.32 51.7 222.64 50 224 C50.33 221.69 50.66 219.38 51 217 C52.2684375 216.72736328 52.2684375 216.72736328 53.5625 216.44921875 C66.10954797 214.2394698 66.10954797 214.2394698 76 207 C76.69284736 205.34404567 77.36304224 203.67824523 78 202 C76.89785156 202.02320313 75.79570312 202.04640625 74.66015625 202.0703125 C63.93060867 202.22406851 53.62027768 201.46967479 43 200 C40.33415186 199.65974 37.66718473 199.32968542 35 199 C31.08695413 205.8851685 29.0006644 212.14403767 28 220 C28.66 220 29.32 220 30 220 C30.495 222.475 30.495 222.475 31 225 C27.04 226.98 27.04 226.98 23 229 C23.33 230.98 23.66 232.96 24 235 C17.37124083 235.48209158 12.78405383 234.29556555 7 231 C6.195625 230.29875 5.39125 229.5975 4.5625 228.875 C1.32502225 226.50611384 -1.45421797 226.1609107 -5.35546875 225.48828125 C-7.98461608 225.00284046 -10.50084635 224.38900197 -13.0625 223.625 C-13.79597656 223.41101563 -14.52945313 223.19703125 -15.28515625 222.9765625 C-17 222 -17 222 -17.74609375 219.8984375 C-17.82988281 219.27195313 -17.91367188 218.64546875 -18 218 C-19.65 218.33 -21.3 218.66 -23 219 C-22.67 217.68 -22.34 216.36 -22 215 C-21.03578125 215.01160156 -20.0715625 215.02320313 -19.078125 215.03515625 C-17.18320313 215.04869141 -17.18320313 215.04869141 -15.25 215.0625 C-13.37054688 215.07990234 -13.37054688 215.07990234 -11.453125 215.09765625 C-8.16258062 215.13203473 -8.16258062 215.13203473 -5.703125 214.41015625 C-4 214 -4 214 -1.5 215.375 C3.52842139 217.70962422 8.51564296 217.74264344 14 218 C13.37894096 211.99422692 12.71198524 205.99566516 12 200 C11.86722656 198.8553125 11.73445313 197.710625 11.59765625 196.53125 C11.46230469 195.5928125 11.32695313 194.654375 11.1875 193.6875 C11.02314453 192.48673828 11.02314453 192.48673828 10.85546875 191.26171875 C8.81096498 185.85638685 3.00319875 182.27950676 -1.375 178.6875 C-8.77076396 172.50655433 -14.5527163 166.03764615 -19.73828125 157.8828125 C-21.84643097 154.73690487 -23.35205863 153.72958827 -27 153 C-27.14767822 152.27876953 -27.29535645 151.55753906 -27.44750977 150.81445312 C-29.25953149 142.74832704 -32.19274879 135.84354378 -35.9375 128.5 C-46.42488163 107.78259579 -46.42488163 107.78259579 -46.4375 96.3125 C-46.6687722 90.38462838 -47.63599177 86.55270347 -50.94140625 81.63671875 C-52 80 -52 80 -52 78 C-52.495 78.165 -52.99 78.33 -53.5 78.5 C-58.05963297 79.41192659 -62.55868337 79.48043888 -67 78 C-67.66 79.32 -68.32 80.64 -69 82 C-73.28812828 75.77529766 -74.74017971 71.47460165 -74 64 C-73.30868685 61.89168585 -72.47307397 59.89617398 -71.60546875 57.85546875 C-70.45159512 54.31940441 -71.3891369 51.2217262 -73 48 C-73.38638269 43.98161999 -73.25874364 41.53904924 -71.5 37.875 C-65.31713204 30.76470185 -57.29201603 27.85584358 -48 27 C-42.93999167 26.83689085 -37.88340303 26.9159415 -32.82202148 26.97387695 C-16.10243447 27.20651694 -16.10243447 27.20651694 -2 19 C2.10695585 12.96035905 0.94080354 6.90300429 0 0 Z M89 202 C88.01 202.495 88.01 202.495 87 203 C87 203.66 87 204.32 87 205 C87.99 204.67 88.98 204.34 90 204 C89.67 203.34 89.34 202.68 89 202 Z M27 223 C27 223.66 27 224.32 27 225 C27.66 225 28.32 225 29 225 C29 224.34 29 223.68 29 223 C28.34 223 27.68 223 27 223 Z " fill="#85A4BF" transform="translate(105,36)"/>
<path d="M0 0 C3.78125 0.7578125 3.78125 0.7578125 5.75 2.9375 C8.43833365 9.52391743 7.48234863 15.49792793 5.0625 22.0625 C1.55914601 29.82993628 -4.20586393 35.05460844 -11 40 C-10.38125 40.474375 -9.7625 40.94875 -9.125 41.4375 C-6.15785581 45.01552681 -5.72499971 48.48973867 -5 53 C-4.690625 54.85625 -4.690625 54.85625 -4.375 56.75 C-4.0526826 59.54341744 -3.9149449 62.19318157 -4 65 C-6.31 64.34 -8.62 63.68 -11 63 C-10.7834375 63.71285156 -10.566875 64.42570312 -10.34375 65.16015625 C-8.75702187 70.61820717 -7.62103931 75.31558966 -8 81 C-8.66 81 -9.32 81 -10 81 C-10.08226668 84.04386724 -9.97608217 86.07175348 -9 89 C-11.475 89.495 -11.475 89.495 -14 90 C-14.0825 91.27875 -14.165 92.5575 -14.25 93.875 C-14.390625 96.0546875 -14.390625 96.0546875 -15 98 C-19.26386344 100.96493815 -24.03511737 100.6584725 -29 100 C-33.50136871 98.69670839 -37.86252134 97.21539204 -42 95 C-42.33 94.01 -42.66 93.02 -43 92 C-44.485 91.505 -44.485 91.505 -46 91 C-47.60546875 88.56640625 -47.60546875 88.56640625 -49.1875 85.5625 C-49.98220703 84.07943359 -49.98220703 84.07943359 -50.79296875 82.56640625 C-52 80 -52 80 -52 78 C-52.495 78.165 -52.99 78.33 -53.5 78.5 C-58.05963297 79.41192659 -62.55868337 79.48043888 -67 78 C-67.66 79.32 -68.32 80.64 -69 82 C-73.28812828 75.77529766 -74.74017971 71.47460165 -74 64 C-73.30868685 61.89168585 -72.47307397 59.89617398 -71.60546875 57.85546875 C-70.45159512 54.31940441 -71.3891369 51.2217262 -73 48 C-73.38638269 43.98161999 -73.25874364 41.53904924 -71.5 37.875 C-65.31713204 30.76470185 -57.29201603 27.85584358 -48 27 C-42.93999167 26.83689085 -37.88340303 26.9159415 -32.82202148 26.97387695 C-16.10243447 27.20651694 -16.10243447 27.20651694 -2 19 C2.10695585 12.96035905 0.94080354 6.90300429 0 0 Z " fill="#90AFCB" transform="translate(105,36)"/>
<path d="M0 0 C2.51617916 2.51617916 2.45827946 4.02685084 3.0625 7.5 C5.24389068 16.59639913 10.81110985 22.12990692 18.59375 26.9765625 C24.01554795 30.13564137 29.64844128 32.59918635 35.4375 35 C45.44967337 39.1689372 55.26184866 43.55372211 63.875 50.25 C64.885625 51.02214844 65.89625 51.79429687 66.9375 52.58984375 C68.93565204 54.16236902 70.91596433 55.7579107 72.875 57.37890625 C82.0040649 64.78438468 91.98268671 70.06697305 102.34179688 75.56689453 C108.23844924 78.74593103 113.96901633 82.20948816 119.71875 85.64453125 C122.25325112 87.15047626 124.79772983 88.63861606 127.34375 90.125 C156.40168922 107.11772559 156.40168922 107.11772559 167.9921875 116.39453125 C174.97071027 121.97463409 182.13215507 126.15188293 190.15283203 130.00390625 C196.03995452 132.88624592 201.33970528 136.33970528 206 141 C206.17830165 142.93208837 206.26793417 144.87271372 206.3125 146.8125 C206.36857422 148.39998047 206.36857422 148.39998047 206.42578125 150.01953125 C206 153 206 153 204.66796875 155.32421875 C199.18147103 158.77034982 193.23659886 158.5527248 187.03320312 157.25537109 C182.56660543 156.2041913 178.16030943 154.95076158 173.75 153.6875 C172.22182396 153.26457485 170.69317931 152.84333913 169.1640625 152.42382812 C165.10289993 151.304518 161.05045939 150.15746291 157 149 C156.32779419 148.80806061 155.65558838 148.61612122 154.9630127 148.41836548 C153.30857574 147.9459249 151.6542734 147.47301294 150 147 C152.49505962 144.50494038 153.67328888 144.64051624 157.125 144.375 C158.49011719 144.26285156 158.49011719 144.26285156 159.8828125 144.1484375 C160.58148438 144.09945312 161.28015625 144.05046875 162 144 C161.67 142.35 161.34 140.7 161 139 C164.94448517 139.51449807 168.79928368 140.15828597 172.6875 141 C178.41859117 142.18330696 184.16804846 142.61921966 190 143 C190 142.01 190 141.02 190 140 C189.34 140 188.68 140 188 140 C187.01 137.03 186.02 134.06 185 131 C183.02 131 181.04 131 179 131 C179 130.34 179 129.68 179 129 C175.04 128.01 175.04 128.01 171 127 C170.87625 125.948125 170.7525 124.89625 170.625 123.8125 C169.86002054 121.1077512 169.24550191 120.1739741 166.921875 118.52734375 C162.86318414 116.49177334 158.71757925 114.87651062 154.4375 113.375 C153.303125 112.92125 152.16875 112.4675 151 112 C150.67 111.01 150.34 110.02 150 109 C148.34051852 107.98812105 146.67419438 106.9873454 145 106 C145 105.34 145 104.68 145 104 C142.24305645 102.59657851 139.45967155 101.30080389 136.625 100.0625 C133.96398 98.89721673 131.43542031 97.69512697 128.875 96.3125 C125.56875964 94.8031294 122.58880352 94.46521527 119 94 C116.5625 92.9375 116.5625 92.9375 115 92 C115 91.34 115 90.68 115 90 C114.01 90 113.02 90 112 90 C112.66 90.33 113.32 90.66 114 91 C113.67 91.66 113.34 92.32 113 93 C112.01 93 111.02 93 110 93 C110 92.34 110 91.68 110 91 C109.01 91 108.02 91 107 91 C106.67 89.35 106.34 87.7 106 86 C105.01 86 104.02 86 103 86 C103 85.34 103 84.68 103 84 C101.68 84 100.36 84 99 84 C99 83.34 99 82.68 99 82 C98.01 82 97.02 82 96 82 C94.67578125 80.50390625 94.67578125 80.50390625 93.3125 78.5625 C91.13352508 75.78806831 91.13352508 75.78806831 87.97265625 74.48828125 C87.28042969 74.45089844 86.58820313 74.41351563 85.875 74.375 C82 74 82 74 79.875 71.625 C79.25625 70.75875 78.6375 69.8925 78 69 C74.1961651 66.65295294 71.47413897 65.60522303 67 66 C67 65.34 67 64.68 67 64 C65.02 63.34 63.04 62.68 61 62 C61 61.34 61 60.68 61 60 C59.576875 59.1028125 59.576875 59.1028125 58.125 58.1875 C54.85050303 55.89535212 54.04394363 54.75819708 53 51 C52.01 51.495 52.01 51.495 51 52 C50.896875 50.88625 50.79375 49.7725 50.6875 48.625 C50.460625 47.42875 50.23375 46.2325 50 45 C46.85860441 42.90573627 45.75265875 42.72052637 42.125 42.5 C38.38450659 42.19966841 35.41481268 41.65232872 32 40 C30.08075164 40 28.23605176 40.89203884 26.4375 41.5 C25.61121094 41.7784375 24.78492187 42.056875 23.93359375 42.34375 C23.29550781 42.5603125 22.65742187 42.776875 22 43 C22 43.99 22 44.98 22 46 C23.65 46.33 25.3 46.66 27 47 C27 47.66 27 48.32 27 49 C25.92234375 48.96519531 24.8446875 48.93039063 23.734375 48.89453125 C18.14994953 48.9006815 12.74755519 49.77357522 7.25 50.6875 C5.70892578 50.91083008 5.70892578 50.91083008 4.13671875 51.13867188 C-1.89567604 52.08294631 -1.89567604 52.08294631 -6.703125 55.64453125 C-7.13109375 56.42183594 -7.5590625 57.19914062 -8 58 C-6.35 57.01 -4.7 56.02 -3 55 C-3 55.99 -3 56.98 -3 58 C-2.01 57.67 -1.02 57.34 0 57 C0.99 57.495 0.99 57.495 2 58 C2 58.66 2 59.32 2 60 C3.32 60 4.64 60 6 60 C5.505 60.99 5.505 60.99 5 62 C-8.45605701 60.7719715 -8.45605701 60.7719715 -12 59 C-11.7525 60.175625 -11.7525 60.175625 -11.5 61.375 C-11 64 -11 64 -11 66 C-6.38 65.67 -1.76 65.34 3 65 C5 69 5 69 5 72 C5.99 72.495 5.99 72.495 7 73 C5.375 74.125 5.375 74.125 3 75 C-0.25 74.125 -0.25 74.125 -3 73 C-3 72.34 -3 71.68 -3 71 C-4.32 71 -5.64 71 -7 71 C-7.495 72.485 -7.495 72.485 -8 74 C-11.22791555 76.1519437 -12.28400809 76.20086443 -16 76 C-16.33 76.66 -16.66 77.32 -17 78 C-17.66 78 -18.32 78 -19 78 C-19.495 77.01 -19.495 77.01 -20 76 C-20.66 76 -21.32 76 -22 76 C-22.33 80.62 -22.66 85.24 -23 90 C-23.33 90 -23.66 90 -24 90 C-24.38285156 88.74832031 -24.76570313 87.49664062 -25.16015625 86.20703125 C-27.4182763 79.43267111 -30.69932274 73.16620024 -33.88476562 66.79101562 C-38.23643785 57.91455938 -42.6880676 48.8255548 -42.25 38.75 C-42.21390625 37.65171875 -42.1778125 36.5534375 -42.140625 35.421875 C-42.09421875 34.62265625 -42.0478125 33.8234375 -42 33 C-40.68 33.33 -39.36 33.66 -38 34 C-38 34.99 -38 35.98 -38 37 C-37.34 37.103125 -36.68 37.20625 -36 37.3125 C-33 38 -33 38 -29.4375 39.5625 C-24.09451978 41.67507951 -18.65313379 41.25439102 -13 41 C-12.01 38.03 -11.02 35.06 -10 32 C-8.35 31.67 -6.7 31.34 -5 31 C-5.350625 30.236875 -5.70125 29.47375 -6.0625 28.6875 C-7 26 -7 26 -6 23 C-5.34 23 -4.68 23 -4 23 C-4.68804496 16.80759538 -6.28048715 10.98044406 -8 5 C-7.34 4.67 -6.68 4.34 -6 4 C-3.375 4.9375 -3.375 4.9375 -1 6 C-0.67 4.02 -0.34 2.04 0 0 Z " fill="#8FB2D3" transform="translate(101,94)"/>
<path d="M0 0 C2.51617916 2.51617916 2.45827946 4.02685084 3.0625 7.5 C5.24389068 16.59639913 10.81110985 22.12990692 18.59375 26.9765625 C24.01554795 30.13564137 29.64844128 32.59918635 35.4375 35 C45.44967337 39.1689372 55.26184866 43.55372211 63.875 50.25 C64.885625 51.02214844 65.89625 51.79429687 66.9375 52.58984375 C68.93565204 54.16236902 70.91596433 55.7579107 72.875 57.37890625 C82.0040649 64.78438468 91.98268671 70.06697305 102.34179688 75.56689453 C108.23844924 78.74593103 113.96901633 82.20948816 119.71875 85.64453125 C122.25325112 87.15047626 124.79772983 88.63861606 127.34375 90.125 C156.40168922 107.11772559 156.40168922 107.11772559 167.9921875 116.39453125 C174.97071027 121.97463409 182.13215507 126.15188293 190.15283203 130.00390625 C196.03995452 132.88624592 201.33970528 136.33970528 206 141 C206.17830165 142.93208837 206.26793417 144.87271372 206.3125 146.8125 C206.36857422 148.39998047 206.36857422 148.39998047 206.42578125 150.01953125 C206 153 206 153 204.66796875 155.32421875 C199.18147103 158.77034982 193.23659886 158.5527248 187.03320312 157.25537109 C182.56660543 156.2041913 178.16030943 154.95076158 173.75 153.6875 C172.22182396 153.26457485 170.69317931 152.84333913 169.1640625 152.42382812 C165.10289993 151.304518 161.05045939 150.15746291 157 149 C156.32779419 148.80806061 155.65558838 148.61612122 154.9630127 148.41836548 C153.30857574 147.9459249 151.6542734 147.47301294 150 147 C152.49505962 144.50494038 153.67328888 144.64051624 157.125 144.375 C158.49011719 144.26285156 158.49011719 144.26285156 159.8828125 144.1484375 C160.58148438 144.09945312 161.28015625 144.05046875 162 144 C161.67 142.35 161.34 140.7 161 139 C164.94448517 139.51449807 168.79928368 140.15828597 172.6875 141 C178.41859117 142.18330696 184.16804846 142.61921966 190 143 C190 142.01 190 141.02 190 140 C189.34 140 188.68 140 188 140 C187.01 137.03 186.02 134.06 185 131 C183.02 131 181.04 131 179 131 C179 130.34 179 129.68 179 129 C175.04 128.01 175.04 128.01 171 127 C170.87625 125.948125 170.7525 124.89625 170.625 123.8125 C169.86002054 121.1077512 169.24550191 120.1739741 166.921875 118.52734375 C162.86318414 116.49177334 158.71757925 114.87651062 154.4375 113.375 C153.303125 112.92125 152.16875 112.4675 151 112 C150.67 111.01 150.34 110.02 150 109 C148.34051852 107.98812105 146.67419438 106.9873454 145 106 C145 105.34 145 104.68 145 104 C142.24305645 102.59657851 139.45967155 101.30080389 136.625 100.0625 C133.96398 98.89721673 131.43542031 97.69512697 128.875 96.3125 C125.56875964 94.8031294 122.58880352 94.46521527 119 94 C116.5625 92.9375 116.5625 92.9375 115 92 C115 91.34 115 90.68 115 90 C114.01 90 113.02 90 112 90 C112.66 90.33 113.32 90.66 114 91 C113.67 91.66 113.34 92.32 113 93 C112.01 93 111.02 93 110 93 C110 92.34 110 91.68 110 91 C109.01 91 108.02 91 107 91 C106.67 89.35 106.34 87.7 106 86 C105.01 86 104.02 86 103 86 C103 85.34 103 84.68 103 84 C101.68 84 100.36 84 99 84 C99 83.34 99 82.68 99 82 C98.01 82 97.02 82 96 82 C94.67578125 80.50390625 94.67578125 80.50390625 93.3125 78.5625 C91.13352508 75.78806831 91.13352508 75.78806831 87.97265625 74.48828125 C87.28042969 74.45089844 86.58820313 74.41351563 85.875 74.375 C82 74 82 74 79.875 71.625 C79.25625 70.75875 78.6375 69.8925 78 69 C74.1961651 66.65295294 71.47413897 65.60522303 67 66 C67 65.34 67 64.68 67 64 C65.02 63.34 63.04 62.68 61 62 C61 61.34 61 60.68 61 60 C59.576875 59.1028125 59.576875 59.1028125 58.125 58.1875 C54.85050303 55.89535212 54.04394363 54.75819708 53 51 C52.01 51.495 52.01 51.495 51 52 C50.896875 50.88625 50.79375 49.7725 50.6875 48.625 C50.460625 47.42875 50.23375 46.2325 50 45 C46.85860441 42.90573627 45.75265875 42.72052637 42.125 42.5 C38.38450659 42.19966841 35.41481268 41.65232872 32 40 C29.97549079 40 27.97599474 40.59466775 26 41 C26.66 40.67 27.32 40.34 28 40 C28.65213292 37.97536745 28.65213292 37.97536745 29 36 C27.24755753 34.3516367 27.24755753 34.3516367 25 33 C22.93618425 33.32843384 22.93618425 33.32843384 21 34 C19.515 33.505 19.515 33.505 18 33 C18 32.34 18 31.68 18 31 C17.34 31 16.68 31 16 31 C16 31.66 16 32.32 16 33 C13.525 33.495 13.525 33.495 11 34 C11 32.35 11 30.7 11 29 C11.66 28.67 12.32 28.34 13 28 C12.34 27.34 11.68 26.68 11 26 C8.02934491 26.34227572 8.02934491 26.34227572 5 27 C4.01 27 3.02 27 2 27 C1.67 26.34 1.34 25.68 1 25 C1.66 25 2.32 25 3 25 C2.67 24.01 2.34 23.02 2 22 C2.33 21.67 2.66 21.34 3 21 C2.34 20.67 1.68 20.34 1 20 C1 19.01 1 18.02 1 17 C0.01 16.67 -0.98 16.34 -2 16 C-2.94921875 13.93359375 -2.94921875 13.93359375 -3.6875 11.4375 C-3.93886719 10.61121094 -4.19023438 9.78492187 -4.44921875 8.93359375 C-4.63097656 8.29550781 -4.81273438 7.65742187 -5 7 C-5.99 7 -6.98 7 -8 7 C-7.67 6.01 -7.34 5.02 -7 4 C-5.02 4.66 -3.04 5.32 -1 6 C-0.67 4.02 -0.34 2.04 0 0 Z " fill="#AADEF6" transform="translate(101,94)"/>
<path d="M0 0 C8.03501094 -0.78774617 8.03501094 -0.78774617 12.0625 2.5 C13.0215625 3.7375 13.0215625 3.7375 14 5 C14.61875 4.649375 15.2375 4.29875 15.875 3.9375 C16.926875 3.4734375 16.926875 3.4734375 18 3 C18.66 3.33 19.32 3.66 20 4 C20.66 3.01 21.32 2.02 22 1 C24.4375 0.5625 24.4375 0.5625 27 1 C28.8125 2.5625 28.8125 2.5625 30 5 C30.1875 8.5625 30.1875 8.5625 30 12 C30 12.99 30 13.98 30 15 C30.969375 15.639375 31.93875 16.27875 32.9375 16.9375 C36 19 36 19 36.875 21.25 C36.91625 21.8275 36.9575 22.405 37 23 C37 22.34 37 21.68 37 21 C37.66 21 38.32 21 39 21 C39 20.34 39 19.68 39 19 C41.64 19 44.28 19 47 19 C47.495 17.515 47.495 17.515 48 16 C48.99 16.33 49.98 16.66 51 17 C50.67 18.32 50.34 19.64 50 21 C50.66 21.33 51.32 21.66 52 22 C54.19828943 25.32049313 54.21311422 28.08381243 54.125 32 C54.10695312 33.03125 54.08890625 34.0625 54.0703125 35.125 C54.04710937 36.07375 54.02390625 37.0225 54 38 C54 39.32 54 40.64 54 42 C52.5625 43.625 52.5625 43.625 51 45 C50.505 45.99 50.505 45.99 50 47 C48 49 48 49 45.30078125 49.26953125 C41.57456338 48.9652602 38.6700158 48.03672612 35.1875 46.6875 C34.04667969 46.25824219 32.90585938 45.82898438 31.73046875 45.38671875 C29 44 29 44 28 41 C26.515 40.505 26.515 40.505 25 40 C23.39453125 37.56640625 23.39453125 37.56640625 21.8125 34.5625 C21.28269531 33.57378906 20.75289062 32.58507812 20.20703125 31.56640625 C19 29 19 29 19 27 C18.505 27.165 18.01 27.33 17.5 27.5 C12.94036703 28.41192659 8.44131663 28.48043888 4 27 C3.34 28.32 2.68 29.64 2 31 C-2.29357085 24.76739715 -3.72737733 20.4798635 -3 13 C-2.34407562 10.86061872 -1.54440085 8.85422735 -0.66796875 6.796875 C0.19357202 4.47927995 0.22933741 2.44626567 0 0 Z " fill="#7A8F9C" transform="translate(34,87)"/>
<path d="M0 0 C3.78125 0.7578125 3.78125 0.7578125 5.75 2.9375 C8.43833365 9.52391743 7.48234863 15.49792793 5.0625 22.0625 C1.55914601 29.82993628 -4.20586393 35.05460844 -11 40 C-10.38125 40.474375 -9.7625 40.94875 -9.125 41.4375 C-6.16517043 45.00670625 -5.76355608 48.51694299 -5 53 C-4.505 55.475 -4.505 55.475 -4 58 C-7.3 56.68 -10.6 55.36 -14 54 C-13.67 52.68 -13.34 51.36 -13 50 C-15.31 49.67 -17.62 49.34 -20 49 C-20.28875 48.21625 -20.5775 47.4325 -20.875 46.625 C-21.84912254 43.90328368 -21.84912254 43.90328368 -24 42 C-25.96690374 41.32707499 -25.96690374 41.32707499 -28.125 40.875 C-29.40375 40.58625 -30.6825 40.2975 -32 40 C-32 39.34 -32 38.68 -32 38 C-33.134375 38.144375 -34.26875 38.28875 -35.4375 38.4375 C-36.95830208 38.62525334 -38.47913722 38.81273903 -40 39 C-40.74378906 39.09539062 -41.48757812 39.19078125 -42.25390625 39.2890625 C-47.20888051 39.89227676 -52.00842496 40.09075591 -57 40 C-57 39.34 -57 38.68 -57 38 C-57.825 38.7425 -58.65 39.485 -59.5 40.25 C-63.04231626 43.22452873 -66.81741662 45.05293532 -71 47 C-71.495 45.515 -71.495 45.515 -72 44 C-72.33 45.32 -72.66 46.64 -73 48 C-73.31817283 44.02283961 -73.24164038 41.50341745 -71.5 37.875 C-65.31713204 30.76470185 -57.29201603 27.85584358 -48 27 C-42.93999167 26.83689085 -37.88340303 26.9159415 -32.82202148 26.97387695 C-16.10243447 27.20651694 -16.10243447 27.20651694 -2 19 C2.10695585 12.96035905 0.94080354 6.90300429 0 0 Z " fill="#A8CFE4" transform="translate(105,36)"/>
<path d="M0 0 C2.57111303 0.30003264 5.14293256 0.50661413 7.72265625 0.71875 C10 1 10 1 12 2 C12 1.34 12 0.68 12 0 C17.28 0.99 22.56 1.98 28 3 C28 3.99 28 4.98 28 6 C29.98 6 31.96 6 34 6 C33.67 7.32 33.34 8.64 33 10 C33.99 10.66 34.98 11.32 36 12 C36.6875 15.125 36.6875 15.125 37 18 C35.35 18.66 33.7 19.32 32 20 C32 20.66 32 21.32 32 22 C33.65 22.33 35.3 22.66 37 23 C36.34 24.98 35.68 26.96 35 29 C32.36 28.67 29.72 28.34 27 28 C27 28.66 27 29.32 27 30 C26.34 30 25.68 30 25 30 C25.20625 30.61875 25.4125 31.2375 25.625 31.875 C25.74875 32.57625 25.8725 33.2775 26 34 C25.34 34.66 24.68 35.32 24 36 C23.83723958 33.98177083 23.67447917 31.96354167 23.51171875 29.9453125 C23.12606964 27.60480784 23.12606964 27.60480784 20 26 C19.67 26.66 19.34 27.32 19 28 C18.67 27.01 18.34 26.02 18 25 C17.34 24.34 16.68 23.68 16 23 C16 22.34 16 21.68 16 21 C16.66 21 17.32 21 18 21 C17.69201674 19.51988629 17.378482 18.04092675 17.0625 16.5625 C16.88847656 15.73878906 16.71445312 14.91507813 16.53515625 14.06640625 C16.19247006 12.02338796 16.19247006 12.02338796 15 11 C13.33382885 10.95936168 11.66611905 10.957279 10 11 C9.34 12.32 8.68 13.64 8 15 C8 14.34 8 13.68 8 13 C6.68 12.67 5.36 12.34 4 12 C3.67 12.99 3.34 13.98 3 15 C-0.16115776 13.63016497 -0.9927092 13.0109362 -3 10 C-5.16252055 9.45680765 -5.16252055 9.45680765 -7.5625 9.375 C-11.91766724 9.08233276 -11.91766724 9.08233276 -13 8 C-13.04080783 6.00041636 -13.04254356 3.99954746 -13 2 C-12.01 2.495 -12.01 2.495 -11 3 C-8.88157238 2.0820147 -6.93745609 0.96398987 -4.9375 -0.1875 C-3 -1 -3 -1 0 0 Z " fill="#849CA4" transform="translate(46,78)"/>
<path d="M0 0 C6.61085476 0.48969295 11.94977014 2.33442742 18 5 C18.10841951 6.91541138 18.18578079 8.83259773 18.25 10.75 C18.29640625 11.81734375 18.3428125 12.8846875 18.390625 13.984375 C18 17 18 17 16.671875 19.328125 C11.17880693 22.76530795 5.23897213 22.55322113 -0.96679688 21.25537109 C-5.43339457 20.2041913 -9.83969057 18.95076158 -14.25 17.6875 C-15.77817604 17.26457485 -17.30682069 16.84333913 -18.8359375 16.42382812 C-22.89710007 15.304518 -26.94954061 14.15746291 -31 13 C-31.67220581 12.80806061 -32.34441162 12.61612122 -33.0369873 12.41836548 C-34.69142426 11.9459249 -36.3457266 11.47301294 -38 11 C-35.50494038 8.50494038 -34.32671112 8.64051624 -30.875 8.375 C-29.96492188 8.30023438 -29.05484375 8.22546875 -28.1171875 8.1484375 C-27.06917969 8.07496094 -27.06917969 8.07496094 -26 8 C-26.33 6.35 -26.66 4.7 -27 3 C-23.05551483 3.51449807 -19.20071632 4.15828597 -15.3125 5 C-9.58140883 6.18330696 -3.83195154 6.61921966 2 7 C2 6.01 2 5.02 2 4 C1.34 4 0.68 4 0 4 C0 2.68 0 1.36 0 0 Z " fill="#A6DAFA" transform="translate(289,230)"/>
<path d="M0 0 C1.31471568 0.28151087 2.62675767 0.57553339 3.9375 0.875 C4.66839844 1.03742188 5.39929688 1.19984375 6.15234375 1.3671875 C8 2 8 2 9 4 C10.32 4 11.64 4 13 4 C13 4.66 13 5.32 13 6 C14.27875 6.020625 15.5575 6.04125 16.875 6.0625 C17.59429687 6.07410156 18.31359375 6.08570313 19.0546875 6.09765625 C21.08185404 6.12649242 21.08185404 6.12649242 23 5 C23 5.66 23 6.32 23 7 C24.32 7.33 25.64 7.66 27 8 C27.33 7.34 27.66 6.68 28 6 C29.98 6 31.96 6 34 6 C34 6.66 34 7.32 34 8 C34.99 8 35.98 8 37 8 C37 8.99 37 9.98 37 11 C37.99 11 38.98 11 40 11 C40 11.66 40 12.32 40 13 C39.34 13 38.68 13 38 13 C38 13.66 38 14.32 38 15 C39.32 14.01 40.64 13.02 42 12 C42.495 12.99 42.495 12.99 43 14 C43.33 13.01 43.66 12.02 44 11 C45.98 11 47.96 11 50 11 C47.64560706 16.29738411 44.13458082 17.94077231 39 20 C38.02804688 20.26296875 37.05609375 20.5259375 36.0546875 20.796875 C32.35452984 22.2542261 30.59783627 24.13233564 27.9375 27.0625 C22.84587759 32.6689152 22.84587759 32.6689152 18 33 C15.39453125 32.94921875 15.39453125 32.94921875 12.8125 32.6875 C11.95269531 32.60886719 11.09289062 32.53023438 10.20703125 32.44921875 C8 32 8 32 6 30 C4.35 31.32 2.7 32.64 1 34 C1.33 31.69 1.66 29.38 2 27 C3.2684375 26.72736328 3.2684375 26.72736328 4.5625 26.44921875 C17.10954797 24.2394698 17.10954797 24.2394698 27 17 C27.69284736 15.34404567 28.36304224 13.67824523 29 12 C27.34677734 12.03480469 27.34677734 12.03480469 25.66015625 12.0703125 C14.22872198 12.23412665 3.10013854 11.56593293 -8.18066406 9.62475586 C-10.10727333 9.31769432 -12.05479667 9.14931198 -14 9 C-16.56034753 11.28075185 -16.56034753 11.28075185 -18 14 C-17.67 11.69 -17.34 9.38 -17 7 C-13.91670708 6.08643173 -11.20797012 5.91774436 -8 6 C-4.81509993 6.2773501 -4.81509993 6.2773501 -2 4 C-0.80767387 1.94996045 -0.80767387 1.94996045 0 0 Z " fill="#090D11" transform="translate(154,226)"/>
<path d="M0 0 C0.928125 0.2784375 0.928125 0.2784375 1.875 0.5625 C4.04160178 1.23686176 4.04160178 1.23686176 6 0 C5.01 5.28 4.02 10.56 3 16 C3.66 16 4.32 16 5 16 C5.495 18.475 5.495 18.475 6 21 C2.04 22.98 2.04 22.98 -2 25 C-1.505 27.97 -1.505 27.97 -1 31 C-7.62875917 31.48209158 -12.21594617 30.29556555 -18 27 C-18.804375 26.29875 -19.60875 25.5975 -20.4375 24.875 C-23.67497775 22.50611384 -26.45421797 22.1609107 -30.35546875 21.48828125 C-32.98461608 21.00284046 -35.50084635 20.38900197 -38.0625 19.625 C-38.79597656 19.41101563 -39.52945313 19.19703125 -40.28515625 18.9765625 C-42 18 -42 18 -42.74609375 15.8984375 C-42.82988281 15.27195313 -42.91367188 14.64546875 -43 14 C-44.65 14.33 -46.3 14.66 -48 15 C-47.67 13.68 -47.34 12.36 -47 11 C-46.03578125 11.01160156 -45.0715625 11.02320313 -44.078125 11.03515625 C-42.18320313 11.04869141 -42.18320313 11.04869141 -40.25 11.0625 C-38.37054688 11.07990234 -38.37054688 11.07990234 -36.453125 11.09765625 C-33.16200879 11.13178877 -33.16200879 11.13178877 -30.69921875 10.41015625 C-29 10 -29 10 -26.5625 11.375 C-21.14495009 13.84616312 -15.92710905 13.69759648 -10 14 C-9.34 9.71 -8.68 5.42 -8 1 C-7.01 1.33 -6.02 1.66 -5 2 C-5 5.11227195 -5.45627049 7.94152152 -6 11 C-2.87153247 10.27340526 -2.87153247 10.27340526 -1.3125 7.75 C0.06511203 4.8635748 0.26985151 3.14826764 0 0 Z M2 19 C2 19.66 2 20.32 2 21 C2.66 21 3.32 21 4 21 C4 20.34 4 19.68 4 19 C3.34 19 2.68 19 2 19 Z " fill="#3F505F" transform="translate(130,240)"/>
<path d="M0 0 C5.75496271 1.17463295 10.96426965 2.4254942 16.23046875 5.05859375 C16.23046875 5.71859375 16.23046875 6.37859375 16.23046875 7.05859375 C16.9059375 7.25195312 17.58140625 7.4453125 18.27734375 7.64453125 C19.169375 7.90492188 20.06140625 8.1653125 20.98046875 8.43359375 C21.8621875 8.68882812 22.74390625 8.9440625 23.65234375 9.20703125 C26.02948468 9.9922081 28.10872844 10.73011671 30.23046875 12.05859375 C30.72546875 13.54359375 30.72546875 13.54359375 31.23046875 15.05859375 C26.76458906 16.20398776 22.46175223 16.0996336 17.89453125 15.9375 C16.69816544 15.90208351 16.69816544 15.90208351 15.47763062 15.86595154 C12.93671125 15.78970253 10.39612331 15.70566979 7.85546875 15.62109375 C5.32192823 15.54170948 2.78834458 15.46393711 0.25473022 15.38694763 C-1.31805805 15.33861709 -2.89079675 15.28863444 -4.46347046 15.23670959 C-8.90170125 15.09421289 -13.32898086 15.03480639 -17.76953125 15.05859375 C-18.09953125 16.37859375 -18.42953125 17.69859375 -18.76953125 19.05859375 C-19.09953125 18.06859375 -19.42953125 17.07859375 -19.76953125 16.05859375 C-21.41953125 15.72859375 -23.06953125 15.39859375 -24.76953125 15.05859375 C-24.10953125 13.40859375 -23.44953125 11.75859375 -22.76953125 10.05859375 C-20.10286458 10.05859375 -17.43619792 10.05859375 -14.76953125 10.05859375 C-14.76953125 9.39859375 -14.76953125 8.73859375 -14.76953125 8.05859375 C-13.77953125 7.72859375 -12.78953125 7.39859375 -11.76953125 7.05859375 C-12.26453125 6.62546875 -12.75953125 6.19234375 -13.26953125 5.74609375 C-14.76953125 4.05859375 -14.76953125 4.05859375 -14.76953125 1.05859375 C-12.12953125 1.05859375 -9.48953125 1.05859375 -6.76953125 1.05859375 C-6.76953125 2.04859375 -6.76953125 3.03859375 -6.76953125 4.05859375 C-6.22941406 3.38699219 -5.68929687 2.71539062 -5.1328125 2.0234375 C-2.76953125 0.05859375 -2.76953125 0.05859375 0 0 Z " fill="#69767F" transform="translate(215.76953125,221.94140625)"/>
<path d="M0 0 C1.65 0.33 3.3 0.66 5 1 C5 1.66 5 2.32 5 3 C5.5775 3.28875 6.155 3.5775 6.75 3.875 C7.4925 4.24625 8.235 4.6175 9 5 C9.64195313 5.27457031 10.28390625 5.54914063 10.9453125 5.83203125 C15.35661216 8.33959513 18.11021914 13.26088286 20.375 17.6875 C21.05900944 20.21833493 21.14915126 22.38985299 21 25 C15.97143045 28.01714173 12.70388605 28.37402531 7 28 C6.01 27.67 5.02 27.34 4 27 C3.34 28.32 2.68 29.64 2 31 C-2.29357085 24.76739715 -3.72737733 20.4798635 -3 13 C-2.34407562 10.86061872 -1.54440085 8.85422735 -0.66796875 6.796875 C0.19357202 4.47927995 0.22933741 2.44626567 0 0 Z " fill="#141D27" transform="translate(34,87)"/>
<path d="M0 0 C3.78125 0.7578125 3.78125 0.7578125 5.75 2.9375 C8.43833365 9.52391743 7.48234863 15.49792793 5.0625 22.0625 C2.22657463 28.35825432 -1.89784285 32.47286235 -7 37 C-10.28153853 39.77725611 -10.28153853 39.77725611 -11.25 43.75 C-11.12625 44.86375 -11.12625 44.86375 -11 46 C-20.59453303 43.29384966 -20.59453303 43.29384966 -24 39 C-23.01 39 -22.02 39 -21 39 C-21 38.34 -21 37.68 -21 37 C-22.32 36.67 -23.64 36.34 -25 36 C-25.33 34.68 -25.66 33.36 -26 32 C-25.2265625 31.84144531 -24.453125 31.68289062 -23.65625 31.51953125 C-16.8522717 29.99537274 -11.60598591 28.13620306 -6 24 C-4.576875 23.1028125 -4.576875 23.1028125 -3.125 22.1875 C-0.14888113 19.12384822 0.6547194 16.14336715 1 12 C0.86178285 7.97195728 0.49322272 3.99910316 0 0 Z " fill="#9BB25C" transform="translate(105,36)"/>
<path d="M0 0 C3.1875 -0.3125 3.1875 -0.3125 7 0 C9.9375 2.5 9.9375 2.5 12 5 C12.61875 4.649375 13.2375 4.29875 13.875 3.9375 C14.57625 3.628125 15.2775 3.31875 16 3 C16.66 3.33 17.32 3.66 18 4 C18.66 3.01 19.32 2.02 20 1 C22.4375 0.5625 22.4375 0.5625 25 1 C27.7385687 3.36083508 27.98386848 4.82255331 28.3125 8.4375 C28.02213038 11.74771371 27.43823328 14.03364385 26 17 C25.34 17 24.68 17 24 17 C24.56371414 20.26954202 25.49962266 21.82575883 28 24 C27.01 24.33 26.02 24.66 25 25 C23.77030122 28.51190809 23.77030122 28.51190809 23 32 C23.99 32.66 24.98 33.32 26 34 C26 35.66666667 26 37.33333333 26 39 C24.203125 38.87890625 24.203125 38.87890625 22 38 C20.296875 35.27734375 20.296875 35.27734375 18.75 31.9375 C18.22921875 30.83277344 17.7084375 29.72804688 17.171875 28.58984375 C16.78515625 27.73519531 16.3984375 26.88054687 16 26 C16.99 25.67 17.98 25.34 19 25 C17.389616 18.37516827 15.63278485 14.00841605 11 9 C11 8.34 11 7.68 11 7 C10.236875 6.71125 9.47375 6.4225 8.6875 6.125 C6 5 6 5 3 3 C3 2.34 3 1.68 3 1 C2.01 0.67 1.02 0.34 0 0 Z " fill="#758A96" transform="translate(36,87)"/>
<path d="M0 0 C1.31471568 0.28151087 2.62675767 0.57553339 3.9375 0.875 C4.66839844 1.03742188 5.39929688 1.19984375 6.15234375 1.3671875 C8 2 8 2 9 4 C10.32 4 11.64 4 13 4 C13 4.66 13 5.32 13 6 C14.27875 6.020625 15.5575 6.04125 16.875 6.0625 C17.59429687 6.07410156 18.31359375 6.08570313 19.0546875 6.09765625 C21.08185404 6.12649242 21.08185404 6.12649242 23 5 C23 5.66 23 6.32 23 7 C24.32 7.33 25.64 7.66 27 8 C27.33 7.34 27.66 6.68 28 6 C29.98 6 31.96 6 34 6 C34 6.66 34 7.32 34 8 C34.99 8 35.98 8 37 8 C37 8.66 37 9.32 37 10 C31.57139249 11.81433567 26.83094148 12.31651928 21.125 12.25 C20.30217529 12.24540771 19.47935059 12.24081543 18.6315918 12.23608398 C9.63500241 12.10599828 0.69026053 11.15357084 -8.17626953 9.62475586 C-10.10432795 9.31753296 -12.05333232 9.14926525 -14 9 C-16.56034753 11.28075185 -16.56034753 11.28075185 -18 14 C-17.67 11.69 -17.34 9.38 -17 7 C-13.91670708 6.08643173 -11.20797012 5.91774436 -8 6 C-4.81509993 6.2773501 -4.81509993 6.2773501 -2 4 C-0.80767387 1.94996045 -0.80767387 1.94996045 0 0 Z " fill="#525D61" transform="translate(154,226)"/>
<path d="M0 0 C1.4606285 2.64738916 2 3.89448334 2 7 C2.66 7.33 3.32 7.66 4 8 C2.375 9.125 2.375 9.125 0 10 C-3.25 9.125 -3.25 9.125 -6 8 C-6 7.34 -6 6.68 -6 6 C-7.32 6 -8.64 6 -10 6 C-10.33 6.99 -10.66 7.98 -11 9 C-14.22791555 11.1519437 -15.28400809 11.20086443 -19 11 C-19.33 11.66 -19.66 12.32 -20 13 C-20.66 13 -21.32 13 -22 13 C-22.33 12.34 -22.66 11.68 -23 11 C-23.66 11 -24.32 11 -25 11 C-25.33 15.62 -25.66 20.24 -26 25 C-26.33 25 -26.66 25 -27 25 C-31.64691943 11.84834123 -31.64691943 11.84834123 -29.6875 6.25 C-28 3 -28 3 -26 1 C-26 2.65 -26 4.3 -26 6 C-24.37276701 5.54965877 -22.74826336 5.08944646 -21.125 4.625 C-20.22007813 4.36976563 -19.31515625 4.11453125 -18.3828125 3.8515625 C-15.85430274 3.1395685 -15.85430274 3.1395685 -14 1 C-9.28063656 0.21343943 -4.79094424 -0.11977361 0 0 Z " fill="#9ABBDE" transform="translate(104,159)"/>
<path d="M0 0 C6.625 0.75 6.625 0.75 10 3 C9.195625 3.474375 8.39125 3.94875 7.5625 4.4375 C5.15246512 5.76900154 5.15246512 5.76900154 4 7 C4.66 7.103125 5.32 7.20625 6 7.3125 C8.45942415 7.87611803 10.49275376 8.56203555 12.8125 9.5 C16.8813178 11.08877647 20.65840688 11.61235776 25 12 C25 12.66 25 13.32 25 14 C26.65 14 28.3 14 30 14 C30 14.66 30 15.32 30 16 C33.96 16 37.92 16 42 16 C42 14.68 42 13.36 42 12 C42.66 12 43.32 12 44 12 C44 11.34 44 10.68 44 10 C43.34 9.67 42.68 9.34 42 9 C42.66 7.35 43.32 5.7 44 4 C45.19754817 7.59264452 45.33094958 10.22717474 45 14 C43.6875 16.375 43.6875 16.375 41 18 C31.18790867 20.5172016 22.14438458 17.37836905 12.75 14.6875 C11.22182396 14.26457485 9.69317931 13.84333913 8.1640625 13.42382812 C4.10289993 12.304518 0.05045939 11.15746291 -4 10 C-4.67220581 9.80806061 -5.34441162 9.61612122 -6.0369873 9.41836548 C-7.69142426 8.9459249 -9.3457266 8.47301294 -11 8 C-8.50494038 5.50494038 -7.32671112 5.64051624 -3.875 5.375 C-2.96492188 5.30023438 -2.05484375 5.22546875 -1.1171875 5.1484375 C-0.06917969 5.07496094 -0.06917969 5.07496094 1 5 C0.67 3.35 0.34 1.7 0 0 Z " fill="#99C3E9" transform="translate(262,233)"/>
<path d="M0 0 C0.495 1.485 0.495 1.485 1 3 C-2.84209421 8.89121113 -8.26803762 12.83626242 -15.16015625 14.53125 C-20.50543001 15.22972497 -25.9214966 15.05000791 -31.30078125 14.9375 C-33.93762409 14.89562895 -33.93762409 14.89562895 -36.16796875 15.5625 C-38 16 -38 16 -41 15 C-42.73324119 15.08461492 -44.46392812 15.23604355 -46.1875 15.4375 C-47.08855469 15.53933594 -47.98960938 15.64117187 -48.91796875 15.74609375 C-49.60503906 15.82988281 -50.29210937 15.91367188 -51 16 C-51.33 17.32 -51.66 18.64 -52 20 C-52.61488281 20.10957031 -53.22976562 20.21914062 -53.86328125 20.33203125 C-54.67152344 20.49058594 -55.47976562 20.64914063 -56.3125 20.8125 C-57.11300781 20.96332031 -57.91351563 21.11414063 -58.73828125 21.26953125 C-61.23445587 22.07572236 -62.32422106 23.02052002 -64 25 C-64.66 24.67 -65.32 24.34 -66 24 C-65.67 23.34 -65.34 22.68 -65 22 C-68.81413002 23.1678266 -68.81413002 23.1678266 -71.3125 26.125 C-71.539375 26.74375 -71.76625 27.3625 -72 28 C-72.33 27.34 -72.66 26.68 -73 26 C-68.93111248 18.70990986 -63.47450396 15.45986198 -55.5 13.1875 C-47.96987063 11.60406158 -40.48484524 11.88616391 -32.82202148 11.97387695 C-16.12055507 12.19498225 -16.12055507 12.19498225 -2 4 C-0.76467503 1.90734457 -0.76467503 1.90734457 0 0 Z " fill="#C8EFFC" transform="translate(105,51)"/>
<path d="M0 0 C1.98 0.99 1.98 0.99 4 2 C4 2.66 4 3.32 4 4 C4.58007812 4.12117187 5.16015625 4.24234375 5.7578125 4.3671875 C17.06385908 6.79257703 28.80350255 10.41319315 37 19 C37.99 19.66 38.98 20.32 40 21 C40 21.99 40 22.98 40 24 C36.37723685 22.6744419 33.36494652 21.05653045 30.1875 18.875 C29.39730469 18.33617187 28.60710937 17.79734375 27.79296875 17.2421875 C27.20128906 16.83226562 26.60960937 16.42234375 26 16 C25.67 16.33 25.34 16.66 25 17 C27.31 18.65 29.62 20.3 32 22 C31.34 22.33 30.68 22.66 30 23 C29.01 22.67 28.02 22.34 27 22 C27 21.34 27 20.68 27 20 C26.278125 19.71125 25.55625 19.4225 24.8125 19.125 C22.97336342 18.38934537 21.139681 17.63986646 19.3125 16.875 C17.10032209 15.88203597 17.10032209 15.88203597 15 16 C14.34 16.33 13.68 16.66 13 17 C12.67 17.99 12.34 18.98 12 20 C10.68 18.68 9.36 17.36 8 16 C8.66 15.01 9.32 14.02 10 13 C10 12.01 10 11.02 10 10 C8.4586592 8.61043403 8.4586592 8.61043403 6.5 7.4375 C4.53125 6.18359375 4.53125 6.18359375 3 5 C3 4.34 3 3.68 3 3 C2.01 2.67 1.02 2.34 0 2 C0 1.34 0 0.68 0 0 Z " fill="#8EB7D5" transform="translate(212,182)"/>
<path d="M0 0 C2.45676916 0.06262425 2.45676916 0.06262425 5.0625 -0.3125 C5.94035156 -0.41175781 6.81820312 -0.51101563 7.72265625 -0.61328125 C10.02307196 -0.89021864 10.02307196 -0.89021864 12 -2 C13.5 -0.6875 13.5 -0.6875 15 1 C15 1.99 15 2.98 15 4 C11.04 5.98 11.04 5.98 7 8 C7.33 9.98 7.66 11.96 8 14 C1.40364182 14.47973514 -3.23534724 13.27700177 -9 10 C-9.66 9.34 -10.32 8.68 -11 8 C-7.7 8.33 -4.4 8.66 -1 9 C-1 9.66 -1 10.32 -1 11 C-0.34 11 0.32 11 1 11 C1.33 9.68 1.66 8.36 2 7 C0.906875 6.731875 -0.18625 6.46375 -1.3125 6.1875 C-4.61692663 5.12336261 -5.94960422 4.65345336 -8 2 C-7.67 1.01 -7.34 0.02 -7 -1 C-3.62895826 -2.46078476 -3.21850792 -2.14567195 0 0 Z M11 2 C11 2.66 11 3.32 11 4 C11.66 4 12.32 4 13 4 C13 3.34 13 2.68 13 2 C12.34 2 11.68 2 11 2 Z " fill="#06090E" transform="translate(121,257)"/>
<path d="M0 0 C1.66683481 0.3324915 3.33346912 0.66598848 5 1 C6.76732575 1.01484307 8.535836 0.97179811 10.30078125 0.87890625 C11.76547852 0.80639648 11.76547852 0.80639648 13.25976562 0.73242188 C14.26716797 0.67634766 15.27457031 0.62027344 16.3125 0.5625 C17.33923828 0.51029297 18.36597656 0.45808594 19.42382812 0.40429688 C21.94956087 0.27507334 24.47485261 0.14012709 27 0 C27 0.66 27 1.32 27 2 C28.2375 2.0825 29.475 2.165 30.75 2.25 C33.80769041 2.63492202 34.92647929 2.94669748 37.5 4.8125 C39 7 39 7 39 11 C39.99 11.33 40.98 11.66 42 12 C38.62537285 11.45276317 36.91765 10.9451 34 9 C32.33380554 8.9603287 30.66608987 8.95615553 29 9 C28.67 8.67 28.34 8.34 28 8 C25.69558861 7.46395487 23.38112379 6.97078656 21.0625 6.5 C14.21269297 5.10634648 14.21269297 5.10634648 12 4 C12 4.66 12 5.32 12 6 C7.71 5.67 3.42 5.34 -1 5 C-1 1 -1 1 0 0 Z " fill="#93B6D6" transform="translate(46,74)"/>
<path d="M0 0 C4.05331742 0.54044232 6.21560626 1.70031383 9.375 4.25 C14.16772249 7.77089059 19.03015644 9.52520113 24.64819336 11.21459961 C29.60712449 12.74557475 33.07493696 14.64933643 37 18 C36.01 18.33 35.02 18.66 34 19 C33.505 20.485 33.505 20.485 33 22 C30.625 22.125 30.625 22.125 28 22 C27.34 21.34 26.68 20.68 26 20 C25.21625 19.87625 24.4325 19.7525 23.625 19.625 C20.37162141 18.85038605 19.21111121 17.43984685 17 15 C16.34 14.67 15.68 14.34 15 14 C15 13.34 15 12.68 15 12 C14.278125 11.773125 13.55625 11.54625 12.8125 11.3125 C9.41431697 9.72668125 7.54769001 7.73876676 5 5 C4.071875 4.071875 3.14375 3.14375 2.1875 2.1875 C1.465625 1.465625 0.74375 0.74375 0 0 Z " fill="#86A9C4" transform="translate(235,197)"/>
<path d="M0 0 C0 0.99 0 1.98 0 3 C-0.556875 3.226875 -1.11375 3.45375 -1.6875 3.6875 C-4.21191217 4.98476448 -4.21191217 4.98476448 -6.5625 7.5625 C-9 10 -9 10 -12 11 C-12.33 11.66 -12.66 12.32 -13 13 C-13.99 13.33 -14.98 13.66 -16 14 C-13.22403478 14.78058776 -11.52486123 15.17525801 -8.75390625 14.25 C-2.64570746 10.76582243 2.70533829 6.88398513 5 0 C5.66 0.33 6.32 0.66 7 1 C4.26802797 7.82993007 -0.926782 12.15740743 -6.23828125 17.0703125 C-8.27087111 18.9061851 -8.27087111 18.9061851 -8.25 21.75 C-8.12625 22.86375 -8.12625 22.86375 -8 24 C-17.59453303 21.29384966 -17.59453303 21.29384966 -21 17 C-20.01 17 -19.02 17 -18 17 C-18 16.34 -18 15.68 -18 15 C-19.32 14.67 -20.64 14.34 -22 14 C-22.33 12.68 -22.66 11.36 -23 10 C-22.2265625 9.84144531 -21.453125 9.68289062 -20.65625 9.51953125 C-13.86447918 7.99810734 -8.61704962 6.10112297 -3 2 C-2.01 1.34 -1.02 0.68 0 0 Z " fill="#A7C38A" transform="translate(102,58)"/>
<path d="M0 0 C1.65 0.33 3.3 0.66 5 1 C5 1.66 5 2.32 5 3 C5.5775 3.28875 6.155 3.5775 6.75 3.875 C7.4925 4.24625 8.235 4.6175 9 5 C10.051875 5.4640625 10.051875 5.4640625 11.125 5.9375 C13 7 13 7 15 10 C15 11.32 15 12.64 15 14 C14.34 14 13.68 14 13 14 C12.67 14.66 12.34 15.32 12 16 C11.01 15.67 10.02 15.34 9 15 C8.67 16.32 8.34 17.64 8 19 C6.68 19.33 5.36 19.66 4 20 C3.67 19.34 3.34 18.68 3 18 C2.01 17.67 1.02 17.34 0 17 C0.03255208 14.98177083 0.06510417 12.96354167 0.09765625 10.9453125 C0.12649242 8.91814596 0.12649242 8.91814596 -1 7 C-0.71758117 4.6599583 -0.38749213 2.32495277 0 0 Z " fill="#243544" transform="translate(34,87)"/>
<path d="M0 0 C2.51918625 2.51918625 2.49476818 4.0873485 3.125 7.5625 C4.50141608 13.54130735 6.85586371 16.78057375 11.2578125 20.96484375 C13.27118708 23.31679029 13.65125447 24.96168669 14 28 C13.01 27.34 12.02 26.68 11 26 C7.98650805 26.3355782 7.98650805 26.3355782 5 27 C4.01 27 3.02 27 2 27 C1.67 26.34 1.34 25.68 1 25 C1.66 25 2.32 25 3 25 C2.67 24.01 2.34 23.02 2 22 C2.33 21.67 2.66 21.34 3 21 C2.34 20.67 1.68 20.34 1 20 C1 19.01 1 18.02 1 17 C0.01 16.67 -0.98 16.34 -2 16 C-2.94921875 13.93359375 -2.94921875 13.93359375 -3.6875 11.4375 C-3.93886719 10.61121094 -4.19023438 9.78492187 -4.44921875 8.93359375 C-4.63097656 8.29550781 -4.81273438 7.65742187 -5 7 C-5.99 7 -6.98 7 -8 7 C-7.67 6.01 -7.34 5.02 -7 4 C-5.02 4.66 -3.04 5.32 -1 6 C-0.67 4.02 -0.34 2.04 0 0 Z " fill="#A0CDEE" transform="translate(101,94)"/>
<path d="M0 0 C1.98 0 3.96 0 6 0 C3.64560706 5.29738411 0.13458082 6.94077231 -5 9 C-5.97195312 9.26296875 -6.94390625 9.5259375 -7.9453125 9.796875 C-11.64547016 11.2542261 -13.40216373 13.13233564 -16.0625 16.0625 C-21.15374266 21.66849706 -21.15374266 21.66849706 -26 22 C-29.3125 21.5625 -29.3125 21.5625 -32 21 C-29 19 -29 19 -26 19 C-25.75121094 18.39285156 -25.50242188 17.78570312 -25.24609375 17.16015625 C-23.79646187 14.64715803 -22.56638676 13.85030761 -20.0625 12.4375 C-17.30106645 10.8632248 -15.16979665 9.32748536 -13 7 C-12.484375 6.505 -11.96875 6.01 -11.4375 5.5 C-9.77629047 3.85424985 -9.77629047 3.85424985 -8 1 C-7.34 1 -6.68 1 -6 1 C-6 1.99 -6 2.98 -6 4 C-4.68 3.01 -3.36 2.02 -2 1 C-1.67 1.66 -1.34 2.32 -1 3 C-0.67 2.01 -0.34 1.02 0 0 Z " fill="#03070A" transform="translate(198,237)"/>
<path d="M0 0 C0.61875 0.185625 1.2375 0.37125 1.875 0.5625 C4.04160178 1.23686176 4.04160178 1.23686176 6 0 C5.55102465 2.46038493 5.09131167 4.91789621 4.625 7.375 C4.43550781 8.42300781 4.43550781 8.42300781 4.2421875 9.4921875 C3.2265625 14.7734375 3.2265625 14.7734375 1 17 C-1.6015625 17.4140625 -1.6015625 17.4140625 -4.625 17.625 C-5.62789062 17.69976562 -6.63078125 17.77453125 -7.6640625 17.8515625 C-8.82035156 17.92503906 -8.82035156 17.92503906 -10 18 C-10.33 17.01 -10.66 16.02 -11 15 C-14.46941546 15.45822468 -17.67395049 15.89131683 -21 17 C-21 16.01 -21 15.02 -21 14 C-17.37 14 -13.74 14 -10 14 C-9.34 9.71 -8.68 5.42 -8 1 C-7.01 1.33 -6.02 1.66 -5 2 C-5 5.11227195 -5.45627049 7.94152152 -6 11 C-2.87153247 10.27340526 -2.87153247 10.27340526 -1.3125 7.75 C0.06511203 4.8635748 0.26985151 3.14826764 0 0 Z " fill="#596269" transform="translate(130,240)"/>
<path d="M0 0 C2.0836309 0.14151828 4.16689938 0.28837936 6.25 0.4375 C7.99023438 0.55931641 7.99023438 0.55931641 9.765625 0.68359375 C12.30977376 0.93247787 14.55953248 1.28114942 17 2 C17 2.99 17 3.98 17 5 C15.65808594 4.83951172 15.65808594 4.83951172 14.2890625 4.67578125 C6.72629084 3.92595421 -0.02759087 3.55177152 -7 7 C-7.33 7.66 -7.66 8.32 -8 9 C-9.65 9 -11.3 9 -13 9 C-13 8.34 -13 7.68 -13 7 C-13.825 7.7425 -14.65 8.485 -15.5 9.25 C-19.04231626 12.22452873 -22.81741662 14.05293532 -27 16 C-27.33 15.01 -27.66 14.02 -28 13 C-28.33 14.32 -28.66 15.64 -29 17 C-29.3125 14.8125 -29.3125 14.8125 -29 12 C-26.43879574 8.95424358 -24.79480342 7.26493447 -21 6 C-20.67 6.66 -20.34 7.32 -20 8 C-19.505 7.525625 -19.01 7.05125 -18.5 6.5625 C-15.94120651 4.96325407 -14.73405474 4.7207387 -11.8125 4.4375 C-10.554375 4.293125 -9.29625 4.14875 -8 4 C-7.67 3.34 -7.34 2.68 -7 2 C-4.69 2 -2.38 2 0 2 C0 1.34 0 0.68 0 0 Z " fill="#9BC7E8" transform="translate(61,67)"/>
<path d="M0 0 C0 0.66 0 1.32 0 2 C0.61875 1.814375 1.2375 1.62875 1.875 1.4375 C4 1 4 1 6 2 C6 2.66 6 3.32 6 4 C6.61875 3.505 7.2375 3.01 7.875 2.5 C10 1 10 1 12 1 C12 0.34 12 -0.32 12 -1 C14.24940295 -1.08119503 16.49964871 -1.13927819 18.75 -1.1875 C20.00296875 -1.22230469 21.2559375 -1.25710937 22.546875 -1.29296875 C26.14109357 -0.98802939 27.44725126 -0.45605371 30 2 C28.73160474 2.50615298 27.46016898 3.00469099 26.1875 3.5 C25.12595703 3.91765625 25.12595703 3.91765625 24.04296875 4.34375 C22 5 22 5 19 5 C18.67 5.99 18.34 6.98 18 8 C17.608125 7.34 17.21625 6.68 16.8125 6 C15.14583333 3.70833333 15.14583333 3.70833333 12.3125 3.75 C11.1678125 3.87375 11.1678125 3.87375 10 4 C9.34 5.32 8.68 6.64 8 8 C8 7.34 8 6.68 8 6 C6.68 5.67 5.36 5.34 4 5 C3.67 5.99 3.34 6.98 3 8 C-0.16115776 6.63016497 -0.9927092 6.0109362 -3 3 C-5.19454681 2.42006301 -5.19454681 2.42006301 -7.625 2.3125 C-8.44226562 2.24675781 -9.25953125 2.18101563 -10.1015625 2.11328125 C-10.72804687 2.07589844 -11.35453125 2.03851563 -12 2 C-8.40939861 -1.59060139 -4.69614193 -1.20757935 0 0 Z " fill="#758792" transform="translate(46,85)"/>
<path d="M0 0 C5.55904211 -0.25268373 5.55904211 -0.25268373 7.73828125 0.99609375 C11.00302261 2.44521038 13.88483721 2.22623071 17.4375 2.1875 C18.73558594 2.18105469 20.03367188 2.17460937 21.37109375 2.16796875 C24.41167885 2.02723123 27.03908261 1.61309526 30 1 C32.16379232 0.86074604 34.33194439 0.7803933 36.5 0.75 C37.6034375 0.72421875 38.706875 0.6984375 39.84375 0.671875 C43.32919763 1.03422352 45.20223792 1.93299667 48 4 C48 4.33 48 4.66 48 5 C33.81 5 19.62 5 5 5 C4.67 6.32 4.34 7.64 4 9 C3.67 8.01 3.34 7.02 3 6 C1.35 5.67 -0.3 5.34 -2 5 C-1.34 3.35 -0.68 1.7 0 0 Z " fill="#4B585F" transform="translate(193,232)"/>
<path d="M0 0 C0.33 0.66 0.66 1.32 1 2 C2.31871094 1.91492188 2.31871094 1.91492188 3.6640625 1.828125 C7.39033346 2.02011086 9.19225332 2.86461927 12.375 4.75 C16.27008486 7.00755939 20.14702188 9.08612223 24.24609375 10.9453125 C26 12 26 12 30 16 C25.71 16 21.42 16 17 16 C17 14.68 17 13.36 17 12 C16.40832031 11.80664062 15.81664062 11.61328125 15.20703125 11.4140625 C11.0853355 10.05585281 7.0049476 8.67949415 3 7 C3 6.34 3 5.68 3 5 C1.906875 4.71125 0.81375 4.4225 -0.3125 4.125 C-4 3 -4 3 -7 1 C-5.5459375 1.0309375 -5.5459375 1.0309375 -4.0625 1.0625 C-1.12534105 1.35618499 -1.12534105 1.35618499 0 0 Z " fill="#778FA5" transform="translate(229,222)"/>
<path d="M0 0 C1.32 0 2.64 0 4 0 C3.67 1.32 3.34 2.64 3 4 C3.556875 4.12375 4.11375 4.2475 4.6875 4.375 C7.2618003 5.07075684 9.59880886 5.83185296 12 7 C12.97608217 9.92824652 13.08226668 11.95613276 13 15 C10.69 14.34 8.38 13.68 6 13 C5.4225 13.680625 4.845 14.36125 4.25 15.0625 C3.13625 16.0215625 3.13625 16.0215625 2 17 C-0.25 16.75 -0.25 16.75 -2 16 C-2.33 13.69 -2.66 11.38 -3 9 C-2.34 8.67 -1.68 8.34 -1 8 C-0.53476937 6.10466658 -0.53476937 6.10466658 -0.375 3.9375 C-0.25125 2.638125 -0.1275 1.33875 0 0 Z " fill="#98BDD6" transform="translate(88,86)"/>
<path d="M0 0 C3.1875 -0.3125 3.1875 -0.3125 7 0 C9.9375 2.5 9.9375 2.5 12 5 C12.61875 4.649375 13.2375 4.29875 13.875 3.9375 C14.57625 3.628125 15.2775 3.31875 16 3 C16.66 3.33 17.32 3.66 18 4 C18.66 3.01 19.32 2.02 20 1 C22.625 0.8125 22.625 0.8125 25 1 C25 2.32 25 3.64 25 5 C23.02 5.99 23.02 5.99 21 7 C22.32 7.66 23.64 8.32 25 9 C24.030625 9.268125 23.06125 9.53625 22.0625 9.8125 C21.051875 10.204375 20.04125 10.59625 19 11 C18.67 11.99 18.34 12.98 18 14 C18.66 14.33 19.32 14.66 20 15 C19.67 16.65 19.34 18.3 19 20 C17 18 17 18 15.5625 15.0625 C14.19922279 12.39047667 13.11023168 11.00974446 11 9 C11 8.34 11 7.68 11 7 C10.236875 6.71125 9.47375 6.4225 8.6875 6.125 C6 5 6 5 3 3 C3 2.34 3 1.68 3 1 C2.01 0.67 1.02 0.34 0 0 Z " fill="#65737A" transform="translate(36,87)"/>
<path d="M0 0 C4.25288491 1.28535467 7.83248964 2.90182319 11.6328125 5.1953125 C12.68726563 5.82953125 13.74171875 6.46375 14.828125 7.1171875 C15.91609375 7.77976563 17.0040625 8.44234375 18.125 9.125 C19.18976563 9.764375 20.25453125 10.40375 21.3515625 11.0625 C28.68571515 15.495034 36.05173806 19.97582408 43 25 C43 25.33 43 25.66 43 26 C38.37390802 26.3227506 35.71973879 25.84450614 32 23 C32 22.34 32 21.68 32 21 C29.20199132 19.57555922 26.37537997 18.26044053 23.5 17 C15.24692526 13.38221381 15.24692526 13.38221381 12 10 C11.278125 9.484375 10.55625 8.96875 9.8125 8.4375 C8.9153125 7.7259375 8.9153125 7.7259375 8 7 C8 6.34 8 5.68 8 5 C6.865625 4.731875 5.73125 4.46375 4.5625 4.1875 C3.386875 3.795625 2.21125 3.40375 1 3 C0.67 2.01 0.34 1.02 0 0 Z " fill="#C0EBFC" transform="translate(214,177)"/>
<path d="M0 0 C0.33 0 0.66 0 1 0 C1 1.65 1 3.3 1 5 C1.9075 4.67 2.815 4.34 3.75 4 C7 3 7 3 11 3 C11.33 3.99 11.66 4.98 12 6 C11.54625 6.433125 11.0925 6.86625 10.625 7.3125 C8.79975666 9.10798342 8.79975666 9.10798342 7 12 C6.34 12 5.68 12 5 12 C4.67 11.34 4.34 10.68 4 10 C3.34 10 2.68 10 2 10 C1.67 14.62 1.34 19.24 1 24 C0.67 24 0.34 24 0 24 C-4.66203704 10.80555556 -4.66203704 10.80555556 -2.625 5.25 C-1.75 3.5 -0.875 1.75 0 0 Z " fill="#9DBEDE" transform="translate(77,160)"/>
<path d="M0 0 C2.92965912 2.92965912 3.94133569 5.680053 4.125 9.8125 C4.08375 10.534375 4.0425 11.25625 4 12 C-1.00932754 15.00559652 -4.32723489 15.29341888 -10 15 C-10.33 13.68 -10.66 12.36 -11 11 C-10.54109375 10.62488281 -10.0821875 10.24976562 -9.609375 9.86328125 C-5.96703891 6.82545052 -2.82808093 3.84619007 0 0 Z " fill="#16212A" transform="translate(51,100)"/>
<path d="M0 0 C1.485 0.81404297 1.485 0.81404297 3 1.64453125 C4.33281975 2.36813428 5.66618869 3.09072634 7 3.8125 C7.68610352 4.18560303 8.37220703 4.55870605 9.07910156 4.94311523 C12.5863732 6.82094269 15.91694638 8.43852187 19.75 9.5625 C23.22712503 11.10045915 23.56882626 11.42182174 25 14.6875 C25.33 15.780625 25.66 16.87375 26 18 C24.865625 17.67 23.73125 17.34 22.5625 17 C18.55226882 15.87432107 17.03301265 16.17271535 13 17 C13.66 16.67 14.32 16.34 15 16 C15.65213292 13.97536745 15.65213292 13.97536745 16 12 C14.24755753 10.3516367 14.24755753 10.3516367 12 9 C9.93618425 9.32843384 9.93618425 9.32843384 8 10 C7.01 9.67 6.02 9.34 5 9 C5 8.34 5 7.68 5 7 C4.34 7 3.68 7 3 7 C3 7.66 3 8.32 3 9 C1.35 9.33 -0.3 9.66 -2 10 C-2 8.35 -2 6.7 -2 5 C-1.01 5 -0.02 5 1 5 C0.67 3.35 0.34 1.7 0 0 Z " fill="#B4E3FB" transform="translate(114,118)"/>
<path d="M0 0 C2.94887797 0.50842724 5.37371875 1.59306362 8 3 C5 5 5 5 3 5 C3 4.34 3 3.68 3 3 C0.69 3.33 -1.62 3.66 -4 4 C-3.67 5.65 -3.34 7.3 -3 9 C-1.96939453 8.98259766 -1.96939453 8.98259766 -0.91796875 8.96484375 C-0.01691406 8.95582031 0.88414063 8.94679688 1.8125 8.9375 C2.70582031 8.92589844 3.59914063 8.91429687 4.51953125 8.90234375 C7 9 7 9 10 10 C9.67 10.99 9.34 11.98 9 13 C3.92100621 12.09871718 -1.11078581 11.08185482 -6.0625 9.625 C-6.79597656 9.41101563 -7.52945313 9.19703125 -8.28515625 8.9765625 C-10 8 -10 8 -10.74609375 5.8984375 C-10.82988281 5.27195313 -10.91367188 4.64546875 -11 4 C-12.65 4.33 -14.3 4.66 -16 5 C-15.67 3.68 -15.34 2.36 -15 1 C-14.00097656 1.01160156 -13.00195312 1.02320313 -11.97265625 1.03515625 C-10.68230469 1.04417969 -9.39195313 1.05320313 -8.0625 1.0625 C-6.13083984 1.07990234 -6.13083984 1.07990234 -4.16015625 1.09765625 C-1.13701597 1.36532549 -1.13701597 1.36532549 0 0 Z " fill="#070D14" transform="translate(98,250)"/>
<path d="M0 0 C1.32 0.33 2.64 0.66 4 1 C4 1.99 4 2.98 4 4 C5.1446875 4.185625 5.1446875 4.185625 6.3125 4.375 C9 5 9 5 12 7 C11.34 7 10.68 7 10 7 C10 7.66 10 8.32 10 9 C9.01 9.33 8.02 9.66 7 10 C6.67 12.31 6.34 14.62 6 17 C5.34 17 4.68 17 4 17 C4 18.98 4 20.96 4 23 C-0.81775674 15.77336489 -0.22786088 8.41819374 0 0 Z " fill="#95B0C1" transform="translate(59,127)"/>
<path d="M0 0 C1.3125 2.0625 1.3125 2.0625 2 4 C1.67 4.33 1.34 4.66 1 5 C2.32 5.66 3.64 6.32 5 7 C0.76850984 10.868791 0.76850984 10.868791 -2.5625 11.4375 C-5.66251301 10.88108741 -6.9485701 10.43132433 -9 8 C-9.34228273 5.24543899 -9.18321933 2.79409479 -9 0 C-5.68989426 -1.10336858 -3.3186024 -1.13531135 0 0 Z " fill="#7F96A5" transform="translate(72,144)"/>
<path d="M0 0 C0.99 0.495 0.99 0.495 2 1 C5.61048298 2.24725776 8.73322793 1.88013296 12.5 1.5 C19.85416577 0.75783648 19.85416577 0.75783648 23 2 C24.25 4.0625 24.25 4.0625 25 6 C21.25 9 21.25 9 19 9 C19 8.34 19 7.68 19 7 C17.02 7 15.04 7 13 7 C13 6.34 13 5.68 13 5 C6.565 5.495 6.565 5.495 0 6 C0 4.02 0 2.04 0 0 Z " fill="#839CB0" transform="translate(33,80)"/>
<path d="M0 0 C2.57111303 0.30003264 5.14293256 0.50661413 7.72265625 0.71875 C10 1 10 1 12 2 C12 1.34 12 0.68 12 0 C17.28 0.99 22.56 1.98 28 3 C28 3.33 28 3.66 28 4 C25.08365878 4.19502282 22.16720455 4.38129328 19.25 4.5625 C18.0125 4.64661133 18.0125 4.64661133 16.75 4.73242188 C15.55117188 4.80493164 15.55117188 4.80493164 14.328125 4.87890625 C13.5949707 4.9260376 12.86181641 4.97316895 12.10644531 5.02172852 C9.9100089 4.99907172 8.11852966 4.54541727 6 4 C2.64867381 4.20501246 -0.66679318 4.5739829 -4.00390625 4.94140625 C-7 5 -7 5 -10 3 C-3.375 -1.125 -3.375 -1.125 0 0 Z " fill="#8CA9C5" transform="translate(46,78)"/>
<path d="M0 0 C6.76761128 0.94457629 12.8600433 1.93002165 19 5 C19 5.66 19 6.32 19 7 C21.475 7.495 21.475 7.495 24 8 C20.11679825 9.3967639 16.48165569 8.75575571 12.5 8.1875 C11.83613281 8.10435547 11.17226562 8.02121094 10.48828125 7.93554688 C3.55882433 6.98810616 3.55882433 6.98810616 1 5 C0.25 2.375 0.25 2.375 0 0 Z " fill="#6F8391" transform="translate(213,222)"/>
<path d="M0 0 C8.11538625 2.26166502 17.17574329 5.76361493 22 13 C17.15311808 12.21824485 12.6233633 10.60155722 8 9 C7.67 9.66 7.34 10.32 7 11 C7 10.34 7 9.68 7 9 C6.34 9 5.68 9 5 9 C2 4.61538462 2 4.61538462 2 2 C1.01 1.67 0.02 1.34 -1 1 C-0.67 0.67 -0.34 0.34 0 0 Z " fill="#B7E5FB" transform="translate(283,221)"/>
<path d="M0 0 C1.134375 0.020625 2.26875 0.04125 3.4375 0.0625 C3.4375 0.7225 3.4375 1.3825 3.4375 2.0625 C5.4175 1.4025 7.3975 0.7425 9.4375 0.0625 C9.96979326 1.32857607 10.48794544 2.60060412 11 3.875 C11.29003906 4.58269531 11.58007812 5.29039062 11.87890625 6.01953125 C12.4375 8.0625 12.4375 8.0625 11.4375 11.0625 C11.1075 9.7425 10.7775 8.4225 10.4375 7.0625 C6.1475 6.7325 1.8575 6.4025 -2.5625 6.0625 C-3.2225 4.4125 -3.8825 2.7625 -4.5625 1.0625 C-3.5625 0.0625 -3.5625 0.0625 0 0 Z " fill="#192025" transform="translate(97.5625,252.9375)"/>
<path d="M0 0 C0.66 0.33 1.32 0.66 2 1 C4.33124929 2.00484883 6.66443537 3.00522247 9 4 C8.34 5.65 7.68 7.3 7 9 C7.61875 9.226875 8.2375 9.45375 8.875 9.6875 C11.71423268 11.44114371 12.12962687 12.80863187 13 16 C13.125 19.3125 13.125 19.3125 13 22 C11.62437146 20.71034824 10.29233607 19.37310707 9 18 C9 17.34 9 16.68 9 16 C8.34 16 7.68 16 7 16 C5 13 5 13 4.1875 10.1875 C2.72760634 6.26883806 0.79221743 4.08613506 -2 1 C-1.34 0.67 -0.68 0.34 0 0 Z " fill="#697680" transform="translate(111,217)"/>
<path d="M0 0 C2.31 0 4.62 0 7 0 C7 0.66 7 1.32 7 2 C7.99 2 8.98 2 10 2 C10 2.66 10 3.32 10 4 C4.37742839 5.9169573 -0.52369385 6.24889924 -6.4375 6.125 C-7.26443359 6.11597656 -8.09136719 6.10695312 -8.94335938 6.09765625 C-10.96236708 6.07431512 -12.98122356 6.03845288 -15 6 C-15 5.34 -15 4.68 -15 4 C-10.00632136 3.2717552 -5.00890086 2.61512818 0 2 C0 1.34 0 0.68 0 0 Z " fill="#3F4A4E" transform="translate(181,232)"/>
<path d="M0 0 C2.31 0 4.62 0 7 0 C7 0.66 7 1.32 7 2 C9.31 2.66 11.62 3.32 14 4 C14 4.66 14 5.32 14 6 C14.66 6.33 15.32 6.66 16 7 C15.01 7.495 15.01 7.495 14 8 C13.64080332 9.66128463 13.31088368 11.32900023 13 13 C11.9375 15.3125 11.9375 15.3125 11 17 C10.01 16.34 9.02 15.68 8 15 C8.66 15 9.32 15 10 15 C10 13.02 10 11.04 10 9 C7.69 8.34 5.38 7.68 3 7 C3.99 5.35 4.98 3.7 6 2 C4.02 2 2.04 2 0 2 C0 1.34 0 0.68 0 0 Z " fill="#99B6C2" transform="translate(74,82)"/>
<path d="M0 0 C0.99 0 1.98 0 3 0 C3 0.66 3 1.32 3 2 C5.31 2 7.62 2 10 2 C9.01 2.495 9.01 2.495 8 3 C8 4.32 8 5.64 8 7 C8 9.33333333 8 11.66666667 8 14 C4.50362565 12.44605585 1.60645002 10.82986002 -1 8 C-1.13217121 5.12527611 -0.61771978 2.85101436 0 0 Z " fill="#7A8D9F" transform="translate(80,180)"/>
<path d="M0 0 C4.75218971 1.75130497 9.15573892 4.07702849 13.625 6.4375 C14.388125 6.83259766 15.15125 7.22769531 15.9375 7.63476562 C16.67226562 8.02212891 17.40703125 8.40949219 18.1640625 8.80859375 C18.82873535 9.15720459 19.4934082 9.50581543 20.17822266 9.86499023 C22.07858631 11.0489611 23.48429748 12.36068052 25 14 C24.01 14.33 23.02 14.66 22 15 C21.34 14.34 20.68 13.68 20 13 C19.09314453 13.25136719 19.09314453 13.25136719 18.16796875 13.5078125 C15.19959176 14.1817143 13.94205163 13.32668636 11.3125 11.875 C10.52488281 11.45992187 9.73726562 11.04484375 8.92578125 10.6171875 C6.46819619 8.55341424 6.49873159 7.08810571 6 4 C3.54295238 2.76709799 3.54295238 2.76709799 1 2 C0.67 1.34 0.34 0.68 0 0 Z " fill="#C3EFFC" transform="translate(184,160)"/>
<path d="M0 0 C0.66 0.33 1.32 0.66 2 1 C2.40729228 3.32156597 2.74438677 5.6568787 3 8 C2.34 7.34 1.68 6.68 1 6 C1 7.32 1 8.64 1 10 C2.98 9.67 4.96 9.34 7 9 C7 9.66 7 10.32 7 11 C5.35 11.33 3.7 11.66 2 12 C1.9175 13.27875 1.835 14.5575 1.75 15.875 C1.26617647 19.78705882 1.26617647 19.78705882 -0.875 21.5 C-3 22 -3 22 -6 22 C-5.75 19.125 -5.75 19.125 -5 16 C-3 14.75 -3 14.75 -1 14 C-0.67 13.34 -0.34 12.68 0 12 C-0.99 11.67 -1.98 11.34 -3 11 C-2.34 11 -1.68 11 -1 11 C-1.20625 10.484375 -1.4125 9.96875 -1.625 9.4375 C-2.15887026 5.96734329 -1.07676761 3.29364209 0 0 Z " fill="#87A4BF" transform="translate(89,114)"/>
<path d="M0 0 C1.32 0.33 2.64 0.66 4 1 C4 1.66 4 2.32 4 3 C5.175625 3.3403125 5.175625 3.3403125 6.375 3.6875 C11.12301625 5.40660933 15.52102552 7.68084721 20 10 C19.1414251 7.50184049 19.1414251 7.50184049 18 5 C16.06381575 4.32843384 16.06381575 4.32843384 14 4 C12.96712069 3.03399776 11.96230317 2.03632649 11 1 C17.03280791 2.6166348 20.950809 4.16709462 25 9 C24.01 9 23.02 9 22 9 C21.67 9.99 21.34 10.98 21 12 C18.625 12.125 18.625 12.125 16 12 C15.34 11.34 14.68 10.68 14 10 C13.21625 9.87625 12.4325 9.7525 11.625 9.625 C8.37162141 8.85038605 7.21111121 7.43984685 5 5 C4.34 4.67 3.68 4.34 3 4 C3 3.34 3 2.68 3 2 C2.01 1.67 1.02 1.34 0 1 C0 0.67 0 0.34 0 0 Z " fill="#96B8D9" transform="translate(247,207)"/>
<path d="M0 0 C0.66 0.33 1.32 0.66 2 1 C0.46920333 4.44429252 -1.61654706 7.09516673 -4 10 C-4.99 11.485 -4.99 11.485 -6 13 C-6.66 13 -7.32 13 -8 13 C-8.33 13.99 -8.66 14.98 -9 16 C-9.66 16 -10.32 16 -11 16 C-11.66 17.32 -12.32 18.64 -13 20 C-17 14.25 -17 14.25 -17 12 C-16.34 12 -15.68 12 -15 12 C-15 11.34 -15 10.68 -15 10 C-14.01 10 -13.02 10 -12 10 C-12 10.66 -12 11.32 -12 12 C-11.34 12 -10.68 12 -10 12 C-9.67 11.01 -9.34 10.02 -9 9 C-8.195625 8.690625 -7.39125 8.38125 -6.5625 8.0625 C-3.85842507 7.23391841 -3.85842507 7.23391841 -2.6875 4.875 C-2.460625 4.25625 -2.23375 3.6375 -2 3 C-1.34 3 -0.68 3 0 3 C0 2.01 0 1.02 0 0 Z " fill="#04090E" transform="translate(49,98)"/>
<path d="M0 0 C0.33 0.99 0.66 1.98 1 3 C-6.26 3.66 -13.52 4.32 -21 5 C-21.33 4.34 -21.66 3.68 -22 3 C-14.73239538 -1.23943603 -8.04900626 -1.22054603 0 0 Z " fill="#B2E0FC" transform="translate(74,71)"/>
<path d="M0 0 C2.81042113 0.29073322 3.83347282 0.81563062 5.75 2.9375 C8.00561882 8.46376611 7.56784828 13.94154998 6 19.625 C5.67 20.40875 5.34 21.1925 5 22 C4.67 22 4.34 22 4 22 C4.33 17.38 4.66 12.76 5 8 C4.34 8 3.68 8 3 8 C3.04125 9.093125 3.0825 10.18625 3.125 11.3125 C3 15 3 15 1 18 C1.01740234 16.80503906 1.01740234 16.80503906 1.03515625 15.5859375 C1.11851557 7.74521011 1.11851557 7.74521011 0 0 Z " fill="#B1CC8E" transform="translate(105,36)"/>
<path d="M0 0 C2 0.75 2 0.75 4 3.75 C4 5.07 4 6.39 4 7.75 C3.34 7.75 2.68 7.75 2 7.75 C1.67 8.41 1.34 9.07 1 9.75 C0.01 9.42 -0.98 9.09 -2 8.75 C-2.33 10.07 -2.66 11.39 -3 12.75 C-4.32 13.08 -5.64 13.41 -7 13.75 C-7.33 12.43 -7.66 11.11 -8 9.75 C-7.34 9.42 -6.68 9.09 -6 8.75 C-6 9.74 -6 10.73 -6 11.75 C-5.34 11.75 -4.68 11.75 -4 11.75 C-4.33 10.76 -4.66 9.77 -5 8.75 C-4.34561559 6.74594773 -3.67939174 4.74571323 -3 2.75 C-3.33 2.09 -3.66 1.43 -4 0.75 C-2 -0.25 -2 -0.25 0 0 Z " fill="#23313D" transform="translate(45,93.25)"/>
<path d="M0 0 C2.3125 -0.3125 2.3125 -0.3125 5 0 C7.63560713 3.27178817 8 4.72068147 8 9 C8.66 9 9.32 9 10 9 C10 9.99 10 10.98 10 12 C7.69 12 5.38 12 3 12 C3.66 11.34 4.32 10.68 5 10 C4.34 9.67 3.68 9.34 3 9 C3 8.01 3 7.02 3 6 C2.01 6 1.02 6 0 6 C-1.125 2.25 -1.125 2.25 0 0 Z " fill="#86ABCB" transform="translate(281,225)"/>
<path d="M0 0 C1.8253125 0.2784375 1.8253125 0.2784375 3.6875 0.5625 C7.02977939 0.98993182 9.71968417 0.92258883 13 0 C12.34 1.98 11.68 3.96 11 6 C10.34 6 9.68 6 9 6 C8.67 7.32 8.34 8.64 8 10 C6.68 10 5.36 10 4 10 C2.68 6.7 1.36 3.4 0 0 Z " fill="#90AABF" transform="translate(64,153)"/>
<path d="M0 0 C0.33 0.66 0.66 1.32 1 2 C1.66 2 2.32 2 3 2 C4.9782601 4.26416249 5.97652098 6.05623106 6.05224609 9.10009766 C5.84728298 11.52252773 5.54245476 13.90753911 5.1875 16.3125 C5.07857422 17.14845703 4.96964844 17.98441406 4.85742188 18.84570312 C4.58752204 20.89928885 4.29589839 22.94999893 4 25 C1.72190277 22.72190277 1.68458104 22.12447637 1.3671875 19.04296875 C1.24150391 17.86831055 1.24150391 17.86831055 1.11328125 16.66992188 C1.03464844 15.85072266 0.95601563 15.03152344 0.875 14.1875 C0.78863281 13.37990234 0.70226562 12.57230469 0.61328125 11.74023438 C0.20794098 7.81229413 -0.1122952 3.95439514 0 0 Z " fill="#8A99A5" transform="translate(117,231)"/>
<path d="M0 0 C0 0.99 0 1.98 0 3 C-0.556875 3.226875 -1.11375 3.45375 -1.6875 3.6875 C-4.17872831 4.93961401 -4.17872831 4.93961401 -6.1875 7.4375 C-10.78560613 11.62688558 -15.84293547 13 -22 13 C-22.33 12.01 -22.66 11.02 -23 10 C-22.2265625 9.84144531 -21.453125 9.68289062 -20.65625 9.51953125 C-13.86447918 7.99810734 -8.61704962 6.10112297 -3 2 C-2.01 1.34 -1.02 0.68 0 0 Z " fill="#A9C19F" transform="translate(102,58)"/>
<path d="M0 0 C0.33 0.66 0.66 1.32 1 2 C1.86882812 1.938125 2.73765625 1.87625 3.6328125 1.8125 C7.50918377 2.02835362 9.54689458 3.05184073 12.875 5 C13.84179688 5.556875 14.80859375 6.11375 15.8046875 6.6875 C16.52914062 7.120625 17.25359375 7.55375 18 8 C18 8.33 18 8.66 18 9 C11.81502506 8.58480492 6.70270576 7.37705739 1 5 C-0.49798418 4.43215351 -1.99794885 3.86949964 -3.5 3.3125 C-4.655 2.879375 -5.81 2.44625 -7 2 C-6.401875 1.855625 -5.80375 1.71125 -5.1875 1.5625 C-3.43849596 1.1127561 -1.71322977 0.57107659 0 0 Z " fill="#7F9CBA" transform="translate(229,222)"/>
<path d="M0 0 C2.45676916 0.06262425 2.45676916 0.06262425 5.0625 -0.3125 C5.94035156 -0.41175781 6.81820312 -0.51101563 7.72265625 -0.61328125 C10.02307196 -0.89021864 10.02307196 -0.89021864 12 -2 C13.5 -0.6875 13.5 -0.6875 15 1 C15 1.99 15 2.98 15 4 C14.34 4 13.68 4 13 4 C13 3.34 13 2.68 13 2 C12.01 2.33 11.02 2.66 10 3 C9.01 3 8.02 3 7 3 C6.030625 3.20625 5.06125 3.4125 4.0625 3.625 C0.67283175 4.04006142 -0.12146879 3.57854937 -3 2 C-5.66709069 1.83249586 -5.66709069 1.83249586 -8 2 C-7.67 1.01 -7.34 0.02 -7 -1 C-3.62895826 -2.46078476 -3.21850792 -2.14567195 0 0 Z " fill="#192025" transform="translate(121,257)"/>
<path d="M0 0 C2.64 0 5.28 0 8 0 C8 0.99 8 1.98 8 3 C9.65 2.34 11.3 1.68 13 1 C13 1.99 13 2.98 13 4 C13.66 4 14.32 4 15 4 C15 4.66 15 5.32 15 6 C11.56484998 6.62457273 8.50935186 7 5 7 C5 6.34 5 5.68 5 5 C3.68 4.67 2.36 4.34 1 4 C0.67 2.68 0.34 1.36 0 0 Z " fill="#6B7A84" transform="translate(201,223)"/>
<path d="M0 0 C1.19754817 3.59264452 1.33094958 6.22717474 1 10 C-0.5 12.4375 -0.5 12.4375 -3 14 C-10.0626264 14.89887972 -17.26806983 13.15500848 -24 11 C-24.33 10.34 -24.66 9.68 -25 9 C-21.37 9.33 -17.74 9.66 -14 10 C-14 10.66 -14 11.32 -14 12 C-10.04 12 -6.08 12 -2 12 C-2 10.68 -2 9.36 -2 8 C-1.34 8 -0.68 8 0 8 C0 7.34 0 6.68 0 6 C-0.66 5.67 -1.32 5.34 -2 5 C-1.34 3.35 -0.68 1.7 0 0 Z " fill="#89AECB" transform="translate(306,237)"/>
<path d="M0 0 C4.61513112 1.31860889 8.09897612 3.21355437 12 6 C11.67 6.66 11.34 7.32 11 8 C10.38125 7.835 9.7625 7.67 9.125 7.5 C6.48243927 6.87822101 5.4501347 6.77493265 3 8 C2.67 8.99 2.34 9.98 2 11 C0.68 9.68 -0.64 8.36 -2 7 C-1.34 6.01 -0.68 5.02 0 4 C0 2.68 0 1.36 0 0 Z " fill="#A0CEF5" transform="translate(222,191)"/>
<path d="M0 0 C2.97 0.99 5.94 1.98 9 3 C9.33 5.97 9.66 8.94 10 12 C8.68 12.33 7.36 12.66 6 13 C5.32845067 11.71086513 4.66291141 10.41859796 4 9.125 C3.62875 8.40570313 3.2575 7.68640625 2.875 6.9453125 C2 5 2 5 2 3 C1.01 3 0.02 3 -1 3 C-0.67 2.01 -0.34 1.02 0 0 Z " fill="#A1CAE8" transform="translate(94,98)"/>
<path d="M0 0 C0.99 1.98 1.98 3.96 3 6 C-4.425 5.01 -4.425 5.01 -12 4 C-12 3.34 -12 2.68 -12 2 C-14.31 2.33 -16.62 2.66 -19 3 C-16.57800538 0.57800538 -15.64908926 0.65092009 -12.3125 0.375 C-11.42433594 0.30152344 -10.53617188 0.22804688 -9.62109375 0.15234375 C-6.40037954 -0.03485126 -3.22494003 -0.07010739 0 0 Z " fill="#9BC3E8" transform="translate(73,74)"/>
<path d="M0 0 C1.32 1.32 2.64 2.64 4 4 C3.34 5.65 2.68 7.3 2 9 C1.01 9 0.02 9 -1 9 C-0.98839844 9.62648437 -0.97679688 10.25296875 -0.96484375 10.8984375 C-0.95582031 11.71570313 -0.94679688 12.53296875 -0.9375 13.375 C-0.92589844 14.18710938 -0.91429688 14.99921875 -0.90234375 15.8359375 C-1 18 -1 18 -2 20 C-1.34 20.33 -0.68 20.66 0 21 C-0.99 21 -1.98 21 -3 21 C-3.0272616 18.95840905 -3.04651345 16.91671037 -3.0625 14.875 C-3.07410156 13.73804688 -3.08570312 12.60109375 -3.09765625 11.4296875 C-3.005327 8.1870844 -2.61389906 5.18067388 -2 2 C-1.34 2 -0.68 2 0 2 C0 1.34 0 0.68 0 0 Z M4 2 C4.99 2.495 4.99 2.495 6 3 C5.01 3.495 5.01 3.495 4 4 C4 3.34 4 2.68 4 2 Z " fill="#8FA7C0" transform="translate(81,168)"/>
<path d="M0 0 C0.66 0 1.32 0 2 0 C1.9175 1.03125 1.835 2.0625 1.75 3.125 C2.04030758 7.62476754 3.39424024 9.41708033 6 13 C6 13.99 6 14.98 6 16 C5.34 16 4.68 16 4 16 C4 16.66 4 17.32 4 18 C3.01 17.67 2.02 17.34 1 17 C1.33 15.68 1.66 14.36 2 13 C1.01 12.34 0.02 11.68 -1 11 C-0.67 10.67 -0.34 10.34 0 10 C-1.32 9.67 -2.64 9.34 -4 9 C-4 7.68 -4 6.36 -4 5 C-2.68 4.67 -1.36 4.34 0 4 C0 2.68 0 1.36 0 0 Z " fill="#8EACB4" transform="translate(82,91)"/>
<path d="M0 0 C0 0.66 0 1.32 0 2 C-0.92232422 2.16435547 -0.92232422 2.16435547 -1.86328125 2.33203125 C-2.67152344 2.49058594 -3.47976562 2.64914063 -4.3125 2.8125 C-5.51326172 3.03873047 -5.51326172 3.03873047 -6.73828125 3.26953125 C-9.23445587 4.07572236 -10.32422106 5.02052002 -12 7 C-12.66 6.67 -13.32 6.34 -14 6 C-13.67 5.34 -13.34 4.68 -13 4 C-14.65 4.66 -16.3 5.32 -18 6 C-12.23220326 -0.08822989 -8.31728831 -2.46438172 0 0 Z " fill="#B8E1F9" transform="translate(53,69)"/>
<path d="M0 0 C0 0.66 0 1.32 0 2 C-1.32 2 -2.64 2 -4 2 C-4.99 3.98 -5.98 5.96 -7 8 C-8.32 8 -9.64 8 -11 8 C-11.66 9.32 -12.32 10.64 -13 12 C-13 9.07150949 -12.56590515 7.14085007 -11.6875 4.375 C-11.44386719 3.57835937 -11.20023438 2.78171875 -10.94921875 1.9609375 C-10.47935547 0.99027344 -10.47935547 0.99027344 -10 0 C-6.30581799 -1.231394 -3.7943739 -0.64432764 0 0 Z " fill="#0C1317" transform="translate(194,237)"/>
<path d="M0 0 C4.95 0.33 9.9 0.66 15 1 C15 1.66 15 2.32 15 3 C13.35 3 11.7 3 10 3 C14.95 4.32 19.9 5.64 25 7 C25 7.33 25 7.66 25 8 C19.40742854 7.38349606 14.0268186 6.45925114 8.5625 5.125 C7.84384766 4.96386719 7.12519531 4.80273438 6.38476562 4.63671875 C4.31640625 4.1328125 4.31640625 4.1328125 1 3 C0.67 2.01 0.34 1.02 0 0 Z " fill="#9EBFDB" transform="translate(272,244)"/>
<path d="M0 0 C2 2 2 2 2.9375 5.5 C3.6673234 9.23685745 3.6673234 9.23685745 7 11 C7 12.66666667 7 14.33333333 7 16 C5.203125 15.87890625 5.203125 15.87890625 3 15 C1.296875 12.27734375 1.296875 12.27734375 -0.25 8.9375 C-0.77078125 7.83277344 -1.2915625 6.72804688 -1.828125 5.58984375 C-2.21484375 4.73519531 -2.6015625 3.88054687 -3 3 C-2.01 2.67 -1.02 2.34 0 2 C0 1.34 0 0.68 0 0 Z " fill="#45565B" transform="translate(55,110)"/>
<path d="M0 0 C2.625 -0.1875 2.625 -0.1875 5 0 C5 1.32 5 2.64 5 4 C3.02 4.99 3.02 4.99 1 6 C2.32 6.66 3.64 7.32 5 8 C3.52093108 8.02689216 2.04172517 8.04634621 0.5625 8.0625 C-0.67306641 8.07990234 -0.67306641 8.07990234 -1.93359375 8.09765625 C-4 8 -4 8 -5 7 C-5.04063832 5.33382885 -5.042721 3.66611905 -5 2 C-4.01 2.33 -3.02 2.66 -2 3 C-1.34 2.01 -0.68 1.02 0 0 Z " fill="#5C6872" transform="translate(56,88)"/>
<path d="M0 0 C1.26787979 0.54337705 2.5162163 1.13310815 3.75 1.75 C3.75 2.74 3.75 3.73 3.75 4.75 C4.41 5.08 5.07 5.41 5.75 5.75 C4.125 6.875 4.125 6.875 1.75 7.75 C-1.5 6.875 -1.5 6.875 -4.25 5.75 C-4.25 5.09 -4.25 4.43 -4.25 3.75 C-5.57 3.42 -6.89 3.09 -8.25 2.75 C-2.85223048 -0.3169145 -2.85223048 -0.3169145 0 0 Z " fill="#93B6D9" transform="translate(102.25,161.25)"/>
<path d="M0 0 C8.19256018 -0.4726477 8.19256018 -0.4726477 11.5625 1.5 C12.036875 1.995 12.51125 2.49 13 3 C11.73160474 3.50615298 10.46016898 4.00469099 9.1875 4.5 C8.12595703 4.91765625 8.12595703 4.91765625 7.04296875 5.34375 C5 6 5 6 2 6 C1.67 6.99 1.34 7.98 1 9 C-0.61949011 6.42786866 -1.04408751 5.32330841 -0.625 2.25 C-0.41875 1.5075 -0.2125 0.765 0 0 Z " fill="#7D939D" transform="translate(63,84)"/>
<path d="M0 0 C2.64 0.33 5.28 0.66 8 1 C6 4 6 4 4.4375 5.3125 C2.41142035 7.69094132 2.33839828 9.95441552 2 13 C1.34 13 0.68 13 0 13 C-3 7.25 -3 7.25 -3 5 C-1.68 4.34 -0.36 3.68 1 3 C0.67 2.01 0.34 1.02 0 0 Z " fill="#97B2CB" transform="translate(72,158)"/>
<path d="M0 0 C0.33 0.99 0.66 1.98 1 3 C-2.48073942 8.33713378 -6.87980542 12.04458513 -13 14 C-18.04538365 14.39739313 -22.94405037 14.29975986 -28 14 C-24.62208185 12.00432923 -21.68813545 11.63895266 -17.8125 11.25 C-11.46003016 10.34863604 -6.67624967 8.47293447 -2 4 C-0.76467503 1.90734457 -0.76467503 1.90734457 0 0 Z " fill="#D4F1E1" transform="translate(105,51)"/>
<path d="M0 0 C0.99 0.33 1.98 0.66 3 1 C3 7.17385372 2.6576275 11.91112696 -1 17 C-1.66 16.67 -2.32 16.34 -3 16 C-3 15.34 -3 14.68 -3 14 C-6.46941546 14.45822468 -9.67395049 14.89131683 -13 16 C-13 15.01 -13 14.02 -13 13 C-9.37 13 -5.74 13 -2 13 C-1.34 8.71 -0.68 4.42 0 0 Z " fill="#576674" transform="translate(122,241)"/>
<path d="M0 0 C2.75 2.4375 2.75 2.4375 5 5 C4.01 5.33 3.02 5.66 2 6 C0.77479736 9.00847418 0.77479736 9.00847418 0 12 C-0.66 12 -1.32 12 -2 12 C-2.66 8.37 -3.32 4.74 -4 1 C-2.68 0.67 -1.36 0.34 0 0 Z " fill="#6D7F88" transform="translate(59,106)"/>
<path d="M0 0 C0 3 0 3 -2.1875 5.5 C-4.69738253 7.73100669 -7.05966711 9.40381929 -10 11 C-10.33 10.01 -10.66 9.02 -11 8 C-11.33 9.32 -11.66 10.64 -12 12 C-12.3125 9.8125 -12.3125 9.8125 -12 7 C-9.43879574 3.95424358 -7.79480342 2.26493447 -4 1 C-3.67 1.66 -3.34 2.32 -3 3 C-2.01 2.01 -1.02 1.02 0 0 Z " fill="#AED4EE" transform="translate(44,72)"/>
<path d="M0 0 C3.39455284 1.13151761 4.57997478 2.4287232 7 5 C7.5775 5.5775 8.155 6.155 8.75 6.75 C9.1625 7.1625 9.575 7.575 10 8 C9.67 8.99 9.34 9.98 9 11 C5.625 10.75 5.625 10.75 2 10 C0.5625 7.9375 0.5625 7.9375 0 6 C0.66 5.67 1.32 5.34 2 5 C1.34 3.35 0.68 1.7 0 0 Z " fill="#B0E5F9" transform="translate(181,158)"/>
<path d="M0 0 C4.44365551 2.17220877 8.8004541 4.37528381 13 7 C8.79788161 8.40070613 5.66690632 7.76587588 1.6875 5.9375 C1.130625 5.628125 0.57375 5.31875 0 5 C0 4.34 0 3.68 0 3 C-0.99 2.67 -1.98 2.34 -3 2 C-2.01 1.34 -1.02 0.68 0 0 Z " fill="#A4D5F4" transform="translate(216,181)"/>
<path d="M0 0 C-1.01953125 1.48828125 -1.01953125 1.48828125 -3 3 C-5.64996326 3.2172101 -8.05076558 3.28351554 -10.6875 3.1875 C-11.38939453 3.17396484 -12.09128906 3.16042969 -12.81445312 3.14648438 C-14.54329829 3.11120182 -16.27174765 3.05739583 -18 3 C-17.67 2.01 -17.34 1.02 -17 0 C-11.24153561 -1.39599137 -5.75846439 -1.39599137 0 0 Z " fill="#5F6B71" transform="translate(221,232)"/>
<path d="M0 0 C2.97 0.495 2.97 0.495 6 1 C4.63016497 4.16115776 4.0109362 4.9927092 1 7 C-1.26171875 6.9765625 -1.26171875 6.9765625 -3.6875 6.625 C-4.49574219 6.51414062 -5.30398437 6.40328125 -6.13671875 6.2890625 C-7.05904297 6.14597656 -7.05904297 6.14597656 -8 6 C-5 4 -5 4 -2 4 C-1.34 2.68 -0.68 1.36 0 0 Z " fill="#030405" transform="translate(174,252)"/>
<path d="M0 0 C0.66 0 1.32 0 2 0 C4.05773809 2.96314285 5.13524935 5.54099741 6 9 C6.66 9.33 7.32 9.66 8 10 C8 10.99 8 11.98 8 13 C8.99 13.33 9.98 13.66 11 14 C10.6875 15.9375 10.6875 15.9375 10 18 C9.01 18.33 8.02 18.66 7 19 C7.04125 18.236875 7.0825 17.47375 7.125 16.6875 C7.22080824 13.77281584 7.22080824 13.77281584 5 11 C4.01 10.34 3.02 9.68 2 9 C1.26953125 6.8359375 1.26953125 6.8359375 0.8125 4.375 C0.65394531 3.55773437 0.49539062 2.74046875 0.33203125 1.8984375 C0.22246094 1.27195312 0.11289063 0.64546875 0 0 Z " fill="#97BCDC" transform="translate(94,101)"/>
<path d="M0 0 C1.65 0.33 3.3 0.66 5 1 C4.67 1.99 4.34 2.98 4 4 C4.66 4 5.32 4 6 4 C5.70351563 4.56203125 5.40703125 5.1240625 5.1015625 5.703125 C3.99056497 8.01967305 3.16535294 10.30709092 2.375 12.75 C2.11460938 13.54921875 1.85421875 14.3484375 1.5859375 15.171875 C1.39257812 15.77515625 1.19921875 16.3784375 1 17 C0.67 17 0.34 17 0 17 C0.03255208 14.98177083 0.06510417 12.96354167 0.09765625 10.9453125 C0.12649242 8.91814596 0.12649242 8.91814596 -1 7 C-0.71758117 4.6599583 -0.38749213 2.32495277 0 0 Z " fill="#34465C" transform="translate(34,87)"/>
<path d="M0 0 C0.886875 -0.185625 1.77375 -0.37125 2.6875 -0.5625 C3.8321875 -0.7790625 3.8321875 -0.7790625 5 -1 C5.66 -0.34 6.32 0.32 7 1 C1.90085558 2.23615622 -2.97560615 2.67479795 -8 1 C-8 1.66 -8 2.32 -8 3 C-10.31 3.33 -12.62 3.66 -15 4 C-15 3.01 -15 2.02 -15 1 C-13.44033408 0.63355422 -11.87707349 0.28239138 -10.3125 -0.0625 C-9.44238281 -0.25972656 -8.57226562 -0.45695312 -7.67578125 -0.66015625 C-4.82675619 -1.02200323 -2.78055806 -0.62306819 0 0 Z " fill="#B0DCF9" transform="translate(69,66)"/>
<path d="M0 0 C1.98 0.99 3.96 1.98 6 3 C6 3.66 6 4.32 6 5 C7.65 5 9.3 5 11 5 C11.66 6.32 12.32 7.64 13 9 C11.35 9 9.7 9 8 9 C8 8.34 8 7.68 8 7 C5.36 6.34 2.72 5.68 0 5 C0 3.35 0 1.7 0 0 Z " fill="#99C9EE" transform="translate(272,216)"/>
<path d="M0 0 C0.66 0 1.32 0 2 0 C2.33 1.65 2.66 3.3 3 5 C2.34 5 1.68 5 1 5 C1 6.32 1 7.64 1 9 C-2.96 9 -6.92 9 -11 9 C-11 8.67 -11 8.34 -11 8 C-9.906875 7.71125 -8.81375 7.4225 -7.6875 7.125 C-3.95986155 6.18106796 -3.95986155 6.18106796 -1 4 C-1 3.01 -1 2.02 -1 1 C-0.67 0.67 -0.34 0.34 0 0 Z " fill="#A0CEF0" transform="translate(303,240)"/>
<path d="M0 0 C1.32 1.32 2.64 2.64 4 4 C3.67 4.66 3.34 5.32 3 6 C0.03 6 -2.94 6 -6 6 C-5.67 4.68 -5.34 3.36 -5 2 C-2.4375 0.75 -2.4375 0.75 0 0 Z " fill="#495355" transform="translate(128,251)"/>
<path d="M0 0 C2.875 0.0625 2.875 0.0625 6 1 C7.875 4.0625 7.875 4.0625 9 7 C7.865625 6.67 6.73125 6.34 5.5625 6 C1.55226882 4.87432107 0.03301265 5.17271535 -4 6 C-3.34 5.67 -2.68 5.34 -2 5 C-1.6278958 3.67696283 -1.29369827 2.34262065 -1 1 C-0.67 0.67 -0.34 0.34 0 0 Z " fill="#A6DBF6" transform="translate(131,129)"/>
<path d="M0 0 C0.66 0 1.32 0 2 0 C2 0.66 2 1.32 2 2 C3.32 2.33 4.64 2.66 6 3 C6 3.66 6 4.32 6 5 C4.68 5 3.36 5 2 5 C1.67 5.66 1.34 6.32 1 7 C-1.97 6.505 -1.97 6.505 -5 6 C-4.67 4.68 -4.34 3.36 -4 2 C-2.68 2 -1.36 2 0 2 C0 1.34 0 0.68 0 0 Z " fill="#B3DAC8" transform="translate(78,70)"/>
<path d="M0 0 C6.625 0.75 6.625 0.75 10 3 C5.56923077 6.07692308 5.56923077 6.07692308 2.6875 5.6875 C2.130625 5.460625 1.57375 5.23375 1 5 C0.67 3.35 0.34 1.7 0 0 Z " fill="#95C0EB" transform="translate(262,233)"/>
<path d="M0 0 C3.125 0.375 3.125 0.375 6 1 C6 1.66 6 2.32 6 3 C6.66 3.66 7.32 4.32 8 5 C7.01 6.32 6.02 7.64 5 9 C2.525 8.01 2.525 8.01 0 7 C0 6.01 0 5.02 0 4 C0.99 4 1.98 4 3 4 C3 3.34 3 2.68 3 2 C1.35 2 -0.3 2 -2 2 C-1.34 1.34 -0.68 0.68 0 0 Z " fill="#96C2EB" transform="translate(144,161)"/>
<path d="M0 0 C0.33 1.32 0.66 2.64 1 4 C1.66 4 2.32 4 3 4 C3 4.66 3 5.32 3 6 C2.401875 5.835 1.80375 5.67 1.1875 5.5 C-1.11344336 4.8885876 -1.11344336 4.8885876 -4 5 C-5.68798827 6.43750191 -5.68798827 6.43750191 -7 8 C-6.74438677 5.6568787 -6.40729228 3.32156597 -6 1 C-4 0 -4 0 0 0 Z " fill="#070C0C" transform="translate(162,252)"/>
<path d="M0 0 C6.11485027 -0.09706112 11.93303301 0.22959149 18 1 C16.91796875 2.51953125 16.91796875 2.51953125 15 4 C11.86328125 4.07421875 11.86328125 4.07421875 8.3125 3.6875 C7.13300781 3.56761719 5.95351563 3.44773438 4.73828125 3.32421875 C3.83464844 3.21722656 2.93101562 3.11023438 2 3 C2 2.34 2 1.68 2 1 C1.34 0.67 0.68 0.34 0 0 Z " fill="#9FCEF6" transform="translate(272,236)"/>
<path d="M0 0 C1.65 0 3.3 0 5 0 C5 0.66 5 1.32 5 2 C7.64 2 10.28 2 13 2 C13.33 2.99 13.66 3.98 14 5 C13.01 6.485 13.01 6.485 12 8 C12 7.34 12 6.68 12 6 C7.69677317 4.53060547 3.37702633 3.22556737 -1 2 C-0.67 1.34 -0.34 0.68 0 0 Z " fill="#9BCCF4" transform="translate(123,146)"/>
<path d="M0 0 C0.66 0 1.32 0 2 0 C3.23839599 6.65637843 3.09139136 13.2471936 3 20 C-0.11227851 15.33158223 -0.11824029 11.82402862 -0.0625 6.25 C-0.05347656 5.07953125 -0.04445312 3.9090625 -0.03515625 2.703125 C-0.02355469 1.81109375 -0.01195312 0.9190625 0 0 Z " fill="#B2CAD8" transform="translate(59,127)"/>
<path d="M0 0 C4.21775732 1.35525536 8.29421322 2.90200114 12.375 4.625 C13.96441406 5.29402344 13.96441406 5.29402344 15.5859375 5.9765625 C16.38257813 6.31429687 17.17921875 6.65203125 18 7 C13.55508175 8.48163942 11.21691248 6.80724821 7 5 C4.65518954 5.18372788 4.65518954 5.18372788 3 6 C3 4.68 3 3.36 3 2 C2.01 2 1.02 2 0 2 C0 1.34 0 0.68 0 0 Z " fill="#C2EEFC" transform="translate(119,122)"/>
<path d="M0 0 C1.85546875 0.1015625 1.85546875 0.1015625 4 1 C5.30078125 3.8359375 5.30078125 3.8359375 6.3125 7.375 C6.65925781 8.53773437 7.00601563 9.70046875 7.36328125 10.8984375 C8 14 8 14 7 17 C6.01 16.34 5.02 15.68 4 15 C3.59375 12.79296875 3.59375 12.79296875 3.5 10.1875 C3.21747787 6.03382355 2.59522255 3.3850729 0 0 Z " fill="#C2E4F4" transform="translate(93,77)"/>
<path d="M0 0 C2.97 0.495 2.97 0.495 6 1 C6 1.66 6 2.32 6 3 C8.86724686 2.42655063 9.8614515 2.1385485 12 0 C13 3 13 3 13 7 C3.40546697 4.29384966 3.40546697 4.29384966 0 0 Z " fill="#A3C5B6" transform="translate(81,75)"/>
<path d="M0 0 C1.98 0 3.96 0 6 0 C4.9375 2.4375 4.9375 2.4375 3 5 C-0.6875 5.8125 -0.6875 5.8125 -4 6 C-3.67 4.35 -3.34 2.7 -3 1 C-2.34 1.66 -1.68 2.32 -1 3 C-0.67 2.01 -0.34 1.02 0 0 Z " fill="#131F29" transform="translate(198,237)"/>
<path d="M0 0 C3.52654992 1.60449665 6.50516549 3.71268198 9.625 6 C10.58664062 6.70125 11.54828125 7.4025 12.5390625 8.125 C15 10 15 10 17 12 C14.6875 12.1875 14.6875 12.1875 12 12 C10.96827859 11.03276118 9.97391577 10.02542093 9 9 C6.64478457 7.17358941 4.25715219 5.39645258 1.86328125 3.62109375 C1.24839844 3.08613281 0.63351562 2.55117187 0 2 C0 1.34 0 0.68 0 0 Z " fill="#C1E8FD" transform="translate(266,209)"/>
<path d="M0 0 C2.31 0 4.62 0 7 0 C7 0.66 7 1.32 7 2 C9.31 2.66 11.62 3.32 14 4 C14 4.66 14 5.32 14 6 C14.66 6.33 15.32 6.66 16 7 C11.82412255 8.39195915 9.86525224 6.82323219 6 5 C6 4.01 6 3.02 6 2 C4.02 2 2.04 2 0 2 C0 1.34 0 0.68 0 0 Z " fill="#90AEC4" transform="translate(74,82)"/>
<path d="M0 0 C0 1.65 0 3.3 0 5 C-0.99 5.33 -1.98 5.66 -3 6 C-3 5.34 -3 4.68 -3 4 C-4.98 4 -6.96 4 -9 4 C-9 3.34 -9 2.68 -9 2 C-9.66 1.67 -10.32 1.34 -11 1 C-7.26513121 0.4254048 -3.78706732 0 0 0 Z " fill="#7D97A7" transform="translate(55,83)"/>
<path d="M0 0 C2.53605069 2.53605069 2.79250373 4.46876556 3.625 7.9375 C3.88539062 8.99839844 4.14578125 10.05929688 4.4140625 11.15234375 C5 14 5 14 5 17 C2.11192273 14.61419704 1.38045052 12.70939253 1 9 C1.33 8.34 1.66 7.68 2 7 C1.01 6.67 0.02 6.34 -1 6 C-0.67 4.02 -0.34 2.04 0 0 Z " fill="#BDE0F3" transform="translate(101,94)"/>
<path d="M0 0 C-0.99 0.495 -0.99 0.495 -2 1 C-2.33 2.32 -2.66 3.64 -3 5 C-8.94 3.515 -8.94 3.515 -15 2 C-15 1.67 -15 1.34 -15 1 C-9.92928099 0.28832014 -5.11791642 -0.10662326 0 0 Z " fill="#25292F" transform="translate(125,263)"/>
<path d="M0 0 C8.57142857 2.85714286 8.57142857 2.85714286 12 7 C9.03 7 6.06 7 3 7 C3 6.01 3 5.02 3 4 C2.01 3.34 1.02 2.68 0 2 C0 1.34 0 0.68 0 0 Z " fill="#7C9BBA" transform="translate(247,231)"/>
<path d="M0 0 C1.33333333 0 2.66666667 0 4 0 C3.67 4.62 3.34 9.24 3 14 C2.67 14 2.34 14 2 14 C1.46658816 12.42085985 0.94874237 10.83645613 0.4375 9.25 C0.14746094 8.36828125 -0.14257812 7.4865625 -0.44140625 6.578125 C-1.01697435 3.92165684 -0.89248371 2.52968894 0 0 Z " fill="#ABC8E2" transform="translate(75,170)"/>
<path d="M0 0 C0 0.66 0 1.32 0 2 C1.65 2.33 3.3 2.66 5 3 C4.67 3.66 4.34 4.32 4 5 C3.01 5 2.02 5 1 5 C1 4.34 1 3.68 1 3 C-1.64 3.99 -4.28 4.98 -7 6 C-7 3 -7 3 -5.75 1.3125 C-4 0 -4 0 0 0 Z " fill="#8DABC9" transform="translate(98,165)"/>
<path d="M0 0 C2 1.25 2 1.25 4 3 C4 4.32 4 5.64 4 7 C4.99 7.33 5.98 7.66 7 8 C3.44219804 7.39009109 0.3171411 6.4216319 -3 5 C-3 4.01 -3 3.02 -3 2 C-2.01 1.34 -1.02 0.68 0 0 Z " fill="#9ABCD6" transform="translate(81,78)"/>
<path d="M0 0 C2.31 0 4.62 0 7 0 C7 0.66 7 1.32 7 2 C8.98 1.34 10.96 0.68 13 0 C13.33 0.66 13.66 1.32 14 2 C11.64046906 4.35953094 10.22104383 4.49141413 7 5 C6.34 4.01 5.68 3.02 5 2 C4.01 1.67 3.02 1.34 2 1 C2 1.66 2 2.32 2 3 C1.01 2.67 0.02 2.34 -1 2 C-0.67 1.34 -0.34 0.68 0 0 Z " fill="#272F3B" transform="translate(94,253)"/>
<path d="M0 0 C2.9375 1.5 2.9375 1.5 5 3 C1.94730154 4.52634923 -0.75845689 3.83794444 -4.125 3.5625 C-5.40632812 3.46066406 -6.68765625 3.35882813 -8.0078125 3.25390625 C-9.48894531 3.12822266 -9.48894531 3.12822266 -11 3 C-7.19748013 -0.14519149 -4.97629098 -0.5238201 0 0 Z " fill="#58646B" transform="translate(236,233)"/>
<path d="M0 0 C0.99 0.66 1.98 1.32 3 2 C1.29374499 4.78388975 0.52373261 5.85384206 -2.6875 6.75 C-3.8321875 6.87375 -3.8321875 6.87375 -5 7 C-5 5.68 -5 4.36 -5 3 C-3.35 2.67 -1.7 2.34 0 2 C0 1.34 0 0.68 0 0 Z " fill="#718191" transform="translate(94,192)"/>
<path d="M0 0 C1.875 0.25 1.875 0.25 4 1 C5.125 3 5.125 3 6 5 C6.66 5.33 7.32 5.66 8 6 C7.67 6.66 7.34 7.32 7 8 C6.01 8 5.02 8 4 8 C4 7.34 4 6.68 4 6 C3.01 6 2.02 6 1 6 C0.67 4.02 0.34 2.04 0 0 Z " fill="#A1D5F8" transform="translate(207,179)"/>
<path d="M0 0 C1.32 1.32 2.64 2.64 4 4 C-1.75 7 -1.75 7 -4 7 C-3.6875 4.625 -3.6875 4.625 -3 2 C-2.01 1.34 -1.02 0.68 0 0 Z " fill="#010204" transform="translate(130,258)"/>
<path d="M0 0 C2.75 0.42578125 2.75 0.42578125 6 1.3125 C7.60875 1.73982422 7.60875 1.73982422 9.25 2.17578125 C12 3 12 3 14 4 C14 4.66 14 5.32 14 6 C8.72 4.68 3.44 3.36 -2 2 C-1.34 1.34 -0.68 0.68 0 0 Z " fill="#AAC7E8" transform="translate(253,239)"/>
<path d="M0 0 C1.98 0 3.96 0 6 0 C6.33 1.32 6.66 2.64 7 4 C6.01 4 5.02 4 4 4 C4 4.66 4 5.32 4 6 C1.03 5.505 1.03 5.505 -2 5 C-1.34 3.35 -0.68 1.7 0 0 Z " fill="#59656E" transform="translate(193,232)"/>
<path d="M0 0 C1.22589844 0.15275391 1.22589844 0.15275391 2.4765625 0.30859375 C3.41628906 0.43427734 3.41628906 0.43427734 4.375 0.5625 C4.375 1.5525 4.375 2.5425 4.375 3.5625 C3.1375 3.294375 1.9 3.02625 0.625 2.75 C-1.54671907 2.38773193 -1.54671907 2.38773193 -3.625 2.5625 C-6.18534753 4.84325185 -6.18534753 4.84325185 -7.625 7.5625 C-7.36938677 5.2193787 -7.03229228 2.88406597 -6.625 0.5625 C-4.10446405 -0.69776798 -2.7707902 -0.35624445 0 0 Z " fill="#4B555A" transform="translate(143.625,232.4375)"/>
<path d="M0 0 C0.66 0.33 1.32 0.66 2 1 C4.33124929 2.00484883 6.66443537 3.00522247 9 4 C8.01 5.485 8.01 5.485 7 7 C3.06326356 5.68775452 0.77280706 4.08089673 -2 1 C-1.34 0.67 -0.68 0.34 0 0 Z " fill="#5F6D76" transform="translate(111,217)"/>
<path d="M0 0 C6.03280791 1.6166348 9.950809 3.16709462 14 8 C11.03 7.505 11.03 7.505 8 7 C7.67 6.01 7.34 5.02 7 4 C5.67203709 3.64587656 4.33783393 3.31478446 3 3 C1.96843253 2.03259701 0.96356961 1.03514907 0 0 Z " fill="#99C5E5" transform="translate(258,208)"/>
<path d="M0 0 C0.33 0.99 0.66 1.98 1 3 C-3.95 3.33 -8.9 3.66 -14 4 C-9.12646068 0.34484551 -6.0681188 0 0 0 Z " fill="#ACD8F3" transform="translate(74,71)"/>
<path d="M0 0 C2.12493141 -0.02693575 4.24995912 -0.04636628 6.375 -0.0625 C7.55835937 -0.07410156 8.74171875 -0.08570312 9.9609375 -0.09765625 C13 0 13 0 15 1 C15 1.99 15 2.98 15 4 C9.72684667 3.5547115 4.98229776 2.91626837 0 1 C0 0.67 0 0.34 0 0 Z " fill="#97C0C9" transform="translate(63,68)"/>
<path d="M0 0 C1.79487005 0.0643113 3.58738778 0.20139986 5.375 0.375 C6.35210937 0.46523438 7.32921875 0.55546875 8.3359375 0.6484375 C11 1 11 1 14 2 C13.67 2.99 13.34 3.98 13 5 C11.41532272 4.71572583 9.8322943 4.42225182 8.25 4.125 C6.92742187 3.88136719 6.92742187 3.88136719 5.578125 3.6328125 C3.13052256 3.03203736 1.19400143 2.22002883 -1 1 C-0.67 0.67 -0.34 0.34 0 0 Z " fill="#010307" transform="translate(94,258)"/>
<path d="M0 0 C0.33 1.65 0.66 3.3 1 5 C-1.64738916 6.4606285 -2.89448334 7 -6 7 C-5.67 5.02 -5.34 3.04 -5 1 C-2 0 -2 0 0 0 Z " fill="#829DB4" transform="translate(89,129)"/>
<path d="M0 0 C1.32 1.32 2.64 2.64 4 4 C3.34 5.65 2.68 7.3 2 9 C1.34 9 0.68 9 0 9 C-2 6 -2 6 -2 2 C-1.34 2 -0.68 2 0 2 C0 1.34 0 0.68 0 0 Z M4 2 C4.99 2.495 4.99 2.495 6 3 C5.01 3.495 5.01 3.495 4 4 C4 3.34 4 2.68 4 2 Z " fill="#90AFCF" transform="translate(81,168)"/>
<path d="M0 0 C0.66 0 1.32 0 2 0 C2.99 2.64 3.98 5.28 5 8 C3.35 8 1.7 8 0 8 C0 7.34 0 6.68 0 6 C-0.66 5.67 -1.32 5.34 -2 5 C-1.34 3.35 -0.68 1.7 0 0 Z " fill="#89A1B3" transform="translate(65,90)"/>
<path d="M0 0 C2.16874252 0.50603992 3.99967627 0.99983813 6 2 C6 2.99 6 3.98 6 5 C3.125 5.125 3.125 5.125 0 5 C-0.66 4.34 -1.32 3.68 -2 3 C-1.34 2.01 -0.68 1.02 0 0 Z " fill="#95BDE5" transform="translate(226,213)"/>
<path d="M0 0 C0 0.33 0 0.66 0 1 C-0.90363281 1.12117187 -1.80726562 1.24234375 -2.73828125 1.3671875 C-3.91777344 1.53476563 -5.09726563 1.70234375 -6.3125 1.875 C-7.48425781 2.03742188 -8.65601562 2.19984375 -9.86328125 2.3671875 C-13.14530895 2.82300621 -13.14530895 2.82300621 -16 5 C-15.875 3.125 -15.875 3.125 -15 1 C-9.96187321 -1.64501657 -5.39546115 -0.88725361 0 0 Z " fill="#95BDE6" transform="translate(110,144)"/>
<path d="M0 0 C2.7839183 1.39195915 2.97898997 3.15575779 4 6 C4.66 6 5.32 6 6 6 C6 6.66 6 7.32 6 8 C5.01 8 4.02 8 3 8 C3 8.66 3 9.32 3 10 C2.01 9.67 1.02 9.34 0 9 C0 6.03 0 3.06 0 0 Z " fill="#091824" transform="translate(31,100)"/>
<path d="M0 0 C3 1 6 2 9 3 C8.67 4.32 8.34 5.64 8 7 C4.2047869 5.50902342 2.38957269 3.24299151 0 0 Z " fill="#5A6D77" transform="translate(95,206)"/>
<path d="M0 0 C5.41342681 1.14514798 7.9342948 2.34012809 11 7 C9.35 7 7.7 7 6 7 C6 6.34 6 5.68 6 5 C4.02 4.34 2.04 3.68 0 3 C0 2.01 0 1.02 0 0 Z " fill="#ACE5FD" transform="translate(162,153)"/>
<path d="M0 0 C0.99 0.495 0.99 0.495 2 1 C2 1.99 2 2.98 2 4 C3.1446875 4.185625 3.1446875 4.185625 4.3125 4.375 C7 5 7 5 10 7 C9.34 7 8.68 7 8 7 C8 7.66 8 8.32 8 9 C7.01 9 6.02 9 5 9 C5 7.68 5 6.36 5 5 C3.68 5.33 2.36 5.66 1 6 C0.67 4.02 0.34 2.04 0 0 Z " fill="#89A1AF" transform="translate(61,127)"/>
<path d="M0 0 C0.99 0.33 1.98 0.66 3 1 C3.33 0.67 3.66 0.34 4 0 C4.33 0.99 4.66 1.98 5 3 C6.65 2.67 8.3 2.34 10 2 C10 2.66 10 3.32 10 4 C7.69 4.66 5.38 5.32 3 6 C3 5.34 3 4.68 3 4 C2.34 4 1.68 4 1 4 C0.67 2.68 0.34 1.36 0 0 Z " fill="#171B1C" transform="translate(162,252)"/>
<path d="M0 0 C0.99 0.66 1.98 1.32 3 2 C3.1875 4.625 3.1875 4.625 3 7 C0 6 0 6 -2 4 C-2.99 3.67 -3.98 3.34 -5 3 C-3.35 2.01 -1.7 1.02 0 0 Z " fill="#555B5C" transform="translate(130,248)"/>
<path d="M0 0 C4.2026393 2.63886654 7.56638098 5.36440339 11 9 C6.90385231 8.13350722 4.52464275 7.53809513 1.5625 4.5 C0 2 0 2 0 0 Z " fill="#C6EEFB" transform="translate(170,149)"/>
<path d="M0 0 C0 3.33333333 0 6.66666667 0 10 C-1.32 9.34 -2.64 8.68 -4 8 C-4 4.09161134 -2.49432124 2.88405893 0 0 Z " fill="#212D38" transform="translate(51,100)"/>
<path d="M0 0 C0.99 0.33 1.98 0.66 3 1 C3 4.86695678 1.58090029 7.5088452 0 11 C-0.33 11 -0.66 11 -1 11 C-1.14285714 3.57142857 -1.14285714 3.57142857 0 0 Z " fill="#67747E" transform="translate(122,241)"/>
<path d="M0 0 C1.17664871 3.52994613 1.19850603 6.29455413 1 10 C0.01 11.485 0.01 11.485 -1 13 C-1.99 12.67 -2.98 12.34 -4 12 C-3.34 12 -2.68 12 -2 12 C-2 10.68 -2 9.36 -2 8 C-1.34 8 -0.68 8 0 8 C0 7.34 0 6.68 0 6 C-0.66 5.67 -1.32 5.34 -2 5 C-1.34 3.35 -0.68 1.7 0 0 Z " fill="#97BADD" transform="translate(306,237)"/>
<path d="M0 0 C1.65 0 3.3 0 5 0 C4.34 1.98 3.68 3.96 3 6 C2.01 6 1.02 6 0 6 C-1.125 2.25 -1.125 2.25 0 0 Z " fill="#8CB4D4" transform="translate(281,225)"/>
<path d="M0 0 C6.45512034 -0.56131481 11.15439723 1.36536213 17 4 C13.1280483 5.29065057 10.55767399 4.22324098 6.8125 3.0625 C5.83120117 2.76956055 5.83120117 2.76956055 4.83007812 2.47070312 C3.21772593 1.98817437 1.60853711 1.49509795 0 1 C0 0.67 0 0.34 0 0 Z " fill="#788FA2" transform="translate(215,223)"/>
<path d="M0 0 C1.65 0 3.3 0 5 0 C5 1.32 5 2.64 5 4 C3.68 4.33 2.36 4.66 1 5 C0.67 3.35 0.34 1.7 0 0 Z " fill="#080F16" transform="translate(56,88)"/>
<path d="M0 0 C2.3125 -0.3125 2.3125 -0.3125 5 0 C6.8125 2.5 6.8125 2.5 8 5 C5.36 4.67 2.72 4.34 0 4 C0 2.68 0 1.36 0 0 Z " fill="#98BCDC" transform="translate(68,75)"/>
<path d="M0 0 C0.66 0.33 1.32 0.66 2 1 C2 1.66 2 2.32 2 3 C-0.64 3 -3.28 3 -6 3 C-6 2.01 -6 1.02 -6 0 C-3.4832097 -1.25839515 -2.62168527 -0.81927665 0 0 Z " fill="#38414C" transform="translate(116,261)"/>
<path d="M0 0 C0.99 0 1.98 0 3 0 C3 0.66 3 1.32 3 2 C3.66 2 4.32 2 5 2 C5 3.32 5 4.64 5 6 C4.01 6 3.02 6 2 6 C2 5.01 2 4.02 2 3 C0.02 3 -1.96 3 -4 3 C-2.68 2.67 -1.36 2.34 0 2 C0 1.34 0 0.68 0 0 Z " fill="#8099B1" transform="translate(213,217)"/>
<path d="M0 0 C3.40312738 1.05875074 6.01353231 2.00902154 9 4 C9 4.66 9 5.32 9 6 C5.21213403 5.4739075 2.82847776 4.61896089 0 2 C0 1.34 0 0.68 0 0 Z " fill="#7FA2C1" transform="translate(258,211)"/>
<path d="M0 0 C2.69082872 0.17635452 5.32851446 0.61835921 8 1 C8.33 1.99 8.66 2.98 9 4 C3.58461538 4.36923077 3.58461538 4.36923077 0.625 2.5 C0.08875 2.005 -0.4475 1.51 -1 1 C-0.67 0.67 -0.34 0.34 0 0 Z " fill="#99C8F4" transform="translate(119,139)"/>
<path d="M0 0 C1.98 0.99 1.98 0.99 4 2 C4 2.66 4 3.32 4 4 C5.98 4.66 7.96 5.32 10 6 C10 6.99 10 7.98 10 9 C5.27745665 7.50867052 5.27745665 7.50867052 3.875 4.9375 C3.58625 4.298125 3.2975 3.65875 3 3 C2.01 2.67 1.02 2.34 0 2 C0 1.34 0 0.68 0 0 Z " fill="#90C0E5" transform="translate(212,182)"/>
<path d="M0 0 C3 1 3 1 5 4 C5 5.32 5 6.64 5 8 C3 8 3 8 1.375 6.8125 C-0.42149467 4.44439338 -0.23521845 2.90102749 0 0 Z " fill="#28353D" transform="translate(44,93)"/>
<path d="M0 0 C0.66 0 1.32 0 2 0 C3.125 5.75 3.125 5.75 2 8 C1.01 7.67 0.02 7.34 -1 7 C-1.04254356 5.00045254 -1.04080783 2.99958364 -1 1 C-0.67 0.67 -0.34 0.34 0 0 Z " fill="#A8D0EF" transform="translate(95,84)"/>
<path d="M0 0 C4.08889201 2.22222392 5.7411657 3.29408826 7.375 7.75 C7.58125 8.8225 7.7875 9.895 8 11 C7.34 11 6.68 11 6 11 C5.7525 10.236875 5.505 9.47375 5.25 8.6875 C3.87213641 5.72509328 2.5717159 4.88592499 0 3 C0 2.01 0 1.02 0 0 Z " fill="#A6CBD1" transform="translate(79,74)"/>
<path d="M0 0 C-0.66 0.66 -1.32 1.32 -2 2 C-2.99 2 -3.98 2 -5 2 C-5 2.66 -5 3.32 -5 4 C-6.32 4 -7.64 4 -9 4 C-9.33 3.01 -9.66 2.02 -10 1 C-8.71073008 0.63720544 -7.41846728 0.28503302 -6.125 -0.0625 C-5.40570313 -0.25972656 -4.68640625 -0.45695312 -3.9453125 -0.66015625 C-2 -1 -2 -1 0 0 Z " fill="#A3C1C2" transform="translate(89,67)"/>
<path d="M0 0 C3 1 3 1 5 3 C1.91190305 4.76462683 0.76687864 5 -3 5 C-3 4.01 -3 3.02 -3 2 C-2.01 2 -1.02 2 0 2 C0 1.34 0 0.68 0 0 Z " fill="#9FCFEF" transform="translate(61,67)"/>
<path d="M0 0 C2.31 0 4.62 0 7 0 C7 0.66 7 1.32 7 2 C7.99 2 8.98 2 10 2 C10 2.66 10 3.32 10 4 C6.62294375 3.46274105 3.303314 2.88935377 0 2 C0 1.34 0 0.68 0 0 Z " fill="#566164" transform="translate(181,232)"/>
<path d="M0 0 C0.78375 0.04125 1.5675 0.0825 2.375 0.125 C0.725 1.775 -0.925 3.425 -2.625 5.125 C-3.615 4.795 -4.605 4.465 -5.625 4.125 C-4.13829365 1.15158729 -3.39577812 0.16170372 0 0 Z " fill="#859DB2" transform="translate(74.625,149.875)"/>
<path d="M0 0 C1.65 0.33 3.3 0.66 5 1 C5.33 1.99 5.66 2.98 6 4 C4.02 4 2.04 4 0 4 C0 2.68 0 1.36 0 0 Z " fill="#748A98" transform="translate(67,143)"/>
<path d="M0 0 C4.8274799 1.41292095 8.7162359 3.42974154 13 6 C11 7 11 7 8.90625 6.328125 C8.1121875 5.97234375 7.318125 5.6165625 6.5 5.25 C5.7059375 4.90453125 4.911875 4.5590625 4.09375 4.203125 C2 3 2 3 0 0 Z " fill="#CBF5FE" transform="translate(146,134)"/>
<path d="M0 0 C3.3 0.33 6.6 0.66 10 1 C10 1.33 10 1.66 10 2 C6.37 2.33 2.74 2.66 -1 3 C-0.67 2.01 -0.34 1.02 0 0 Z " fill="#646E75" transform="translate(224,231)"/>
<path d="M0 0 C2.02045442 0.60183749 4.02111039 1.27306096 6 2 C6.33 2.66 6.66 3.32 7 4 C5.35 3.67 3.7 3.34 2 3 C1.34 4.65 0.68 6.3 0 8 C-0.66 7.34 -1.32 6.68 -2 6 C-1.34 5.34 -0.68 4.68 0 4 C0 2.68 0 1.36 0 0 Z " fill="#9AC8EB" transform="translate(222,191)"/>
<path d="M0 0 C0.99 0 1.98 0 3 0 C3 0.99 3 1.98 3 3 C3.66 3.33 4.32 3.66 5 4 C3.02 4.99 3.02 4.99 1 6 C0.67 5.34 0.34 4.68 0 4 C-0.66 4 -1.32 4 -2 4 C-2 3.34 -2 2.68 -2 2 C-1.34 2 -0.68 2 0 2 C0 1.34 0 0.68 0 0 Z " fill="#8DADD0" transform="translate(103,163)"/>
<path d="M0 0 C2 2 2 2 2 5 C0.35 5.33 -1.3 5.66 -3 6 C-3 4.35 -3 2.7 -3 1 C-2.01 0.67 -1.02 0.34 0 0 Z " fill="#9FD0F7" transform="translate(115,122)"/>
<path d="M0 0 C2 2 2 2 2.125 4.625 C2.08375 5.40875 2.0425 6.1925 2 7 C0.02 7.99 0.02 7.99 -2 9 C-1.34 6.03 -0.68 3.06 0 0 Z " fill="#1E3039" transform="translate(53,105)"/>
<path d="M0 0 C1.07424559 3.22273677 1.07030019 5.62559107 1 9 C1 9.99 1 10.98 1 12 C-1.39763185 9.60236815 -1.34280586 8.66726502 -1.625 5.375 C-1.69976562 4.55773437 -1.77453125 3.74046875 -1.8515625 2.8984375 C-1.90054688 2.27195312 -1.94953125 1.64546875 -2 1 C-1.34 0.67 -0.68 0.34 0 0 Z " fill="#1F2F42" transform="translate(34,95)"/>
<path d="M0 0 C-0.33 0.66 -0.66 1.32 -1 2 C-3.32156597 2.40729228 -5.6568787 2.74438677 -8 3 C-8 2.01 -8 1.02 -8 0 C-4.71303767 -0.79953138 -3.28976808 -1.09658936 0 0 Z " fill="#A6D5F9" transform="translate(62,67)"/>
<path d="M0 0 C3.5786304 1.65167557 6.74820188 3.78286492 10 6 C9.01 6.495 9.01 6.495 8 7 C7.01 6.67 6.02 6.34 5 6 C5 5.34 5 4.68 5 4 C2.525 3.01 2.525 3.01 0 2 C0 1.34 0 0.68 0 0 Z " fill="#98BCDD" transform="translate(234,198)"/>
<path d="M0 0 C2.3431213 0.25561323 4.67843403 0.59270772 7 1 C7.33 1.66 7.66 2.32 8 3 C5.03 3 2.06 3 -1 3 C-0.67 2.01 -0.34 1.02 0 0 Z " fill="#7593AF" transform="translate(96,156)"/>
<path d="M0 0 C1.98 0.99 1.98 0.99 4 2 C4 3.66666667 4 5.33333333 4 7 C2.68 6.67 1.36 6.34 0 6 C0 4.02 0 2.04 0 0 Z " fill="#5E6F74" transform="translate(58,119)"/>
<path d="M0 0 C2.31 1.98 4.62 3.96 7 6 C6.01 6.495 6.01 6.495 5 7 C2.375 5.8125 2.375 5.8125 0 4 C0 2.68 0 1.36 0 0 Z " fill="#C1E8FA" transform="translate(107,111)"/>
<path d="M0 0 C2.00720923 0.28674418 4.0085944 0.61866701 6 1 C4.68 2.32 3.36 3.64 2 5 C1.34 4.01 0.68 3.02 0 2 C-0.33 3.32 -0.66 4.64 -1 6 C-1.042721 4.33388095 -1.04063832 2.66617115 -1 1 C-0.67 0.67 -0.34 0.34 0 0 Z " fill="#A5C2DC" transform="translate(33,78)"/>
<path d="M0 0 C0.99 0.33 1.98 0.66 3 1 C2.01 1.33 1.02 1.66 0 2 C-0.59070014 3.94603274 -0.59070014 3.94603274 -1 6 C-1.66 6.66 -2.32 7.32 -3 8 C-2.74438677 5.6568787 -2.40729228 3.32156597 -2 1 C-1.34 0.67 -0.68 0.34 0 0 Z " fill="#000203" transform="translate(158,252)"/>
<path d="M0 0 C2.31 0.33 4.62 0.66 7 1 C7.33 2.32 7.66 3.64 8 5 C4.62496331 3.8141763 2.35277269 2.72426311 0 0 Z " fill="#8DBAD4" transform="translate(244,201)"/>
<path d="M0 0 C0.99 0.33 1.98 0.66 3 1 C2.25 2.9375 2.25 2.9375 1 5 C-1.125 5.75 -1.125 5.75 -3 6 C-3.33 4.68 -3.66 3.36 -4 2 C-3.34 1.67 -2.68 1.34 -2 1 C-2 1.99 -2 2.98 -2 4 C-1.34 4 -0.68 4 0 4 C-0.33 3.01 -0.66 2.02 -1 1 C-0.67 0.67 -0.34 0.34 0 0 Z " fill="#1B2734" transform="translate(41,101)"/>
<path d="M0 0 C2.64 0.33 5.28 0.66 8 1 C8.33 1.99 8.66 2.98 9 4 C5.17902761 3.46930939 2.93828597 2.50298434 0 0 Z " fill="#0C1218" transform="translate(110,265)"/>
<path d="M0 0 C1.45792884 -0.05399736 2.91642712 -0.09279177 4.375 -0.125 C5.18710937 -0.14820313 5.99921875 -0.17140625 6.8359375 -0.1953125 C9 0 9 0 11 2 C6.545 2.495 6.545 2.495 2 3 C2 2.34 2 1.68 2 1 C1.34 0.67 0.68 0.34 0 0 Z " fill="#92C2E9" transform="translate(272,236)"/>
<path d="M0 0 C3.68754757 0.49831724 5.60490662 1.10067643 8 4 C7.67 4.66 7.34 5.32 7 6 C6.34 6 5.68 6 5 6 C5 5.01 5 4.02 5 3 C2.525 2.01 2.525 2.01 0 1 C0 0.67 0 0.34 0 0 Z " fill="#6C818E" transform="translate(239,232)"/>
<path d="M0 0 C2.64 0 5.28 0 8 0 C7.67 0.99 7.34 1.98 7 3 C4.69 3 2.38 3 0 3 C0 2.01 0 1.02 0 0 Z " fill="#70808A" transform="translate(201,223)"/>
<path d="M0 0 C1.98 0.66 3.96 1.32 6 2 C6.33 1.34 6.66 0.68 7 0 C7 1.32 7 2.64 7 4 C5.35 4 3.7 4 2 4 C1.34 2.68 0.68 1.36 0 0 Z " fill="#8CB1D3" transform="translate(261,215)"/>
<path d="M0 0 C3.78786597 0.5260925 6.17152224 1.38103911 9 4 C9 4.66 9 5.32 9 6 C5.06326356 4.68775452 2.77280706 3.08089673 0 0 Z " fill="#9FCEF0" transform="translate(237,194)"/>
<path d="M0 0 C0.33 0 0.66 0 1 0 C1.66 2.64 2.32 5.28 3 8 C0.525 7.01 0.525 7.01 -2 6 C-1.34 4.02 -0.68 2.04 0 0 Z " fill="#6E7F91" transform="translate(81,182)"/>
<path d="M0 0 C2.475 0.99 2.475 0.99 5 2 C4.67 2.99 4.34 3.98 4 5 C3.01 5.33 2.02 5.66 1 6 C0.67 4.02 0.34 2.04 0 0 Z " fill="#BEEFFC" transform="translate(209,174)"/>
<path d="M0 0 C0.33 0.99 0.66 1.98 1 3 C0.01 4.485 0.01 4.485 -1 6 C-3.475 5.01 -3.475 5.01 -6 4 C-5.38125 3.71125 -4.7625 3.4225 -4.125 3.125 C-1.86674235 2.06279958 -1.86674235 2.06279958 0 0 Z " fill="#6E7E86" transform="translate(62,90)"/>
<path d="M0 0 C0.66 0 1.32 0 2 0 C1.60196439 2.88575819 1.20990931 3.82189513 -1.0625 5.75 C-1.701875 6.1625 -2.34125 6.575 -3 7 C-3.33 6.34 -3.66 5.68 -4 5 C-2.71937515 3.2925002 -1.38232443 1.62626404 0 0 Z " fill="#96B04B" transform="translate(106,55)"/>
<path d="M0 0 C1.98 0 3.96 0 6 0 C5.01 0.495 5.01 0.495 4 1 C4 1.66 4 2.32 4 3 C2.35 3.33 0.7 3.66 -1 4 C-0.67 2.68 -0.34 1.36 0 0 Z " fill="#01050B" transform="translate(83,251)"/>
<path d="M0 0 C0.66 0 1.32 0 2 0 C1.67 1.32 1.34 2.64 1 4 C0.34 4 -0.32 4 -1 4 C-1.66 5.32 -2.32 6.64 -3 8 C-3 4.40142046 -2.04169485 2.90548882 0 0 Z " fill="#202629" transform="translate(184,241)"/>
<path d="M0 0 C1.65 0 3.3 0 5 0 C4.67 0.99 4.34 1.98 4 3 C4.66 3.33 5.32 3.66 6 4 C4.68 4.33 3.36 4.66 2 5 C2 4.34 2 3.68 2 3 C1.34 2.67 0.68 2.34 0 2 C0 1.34 0 0.68 0 0 Z " fill="#8BB2DB" transform="translate(258,234)"/>
<path d="M0 0 C2.475 0.99 2.475 0.99 5 2 C4.67 2.66 4.34 3.32 4 4 C1.36 4 -1.28 4 -4 4 C-2.68 3.67 -1.36 3.34 0 3 C0 2.01 0 1.02 0 0 Z " fill="#040A14" transform="translate(45,111)"/>
<path d="M0 0 C3 1 3 1 4 3 C2.02 3.33 0.04 3.66 -2 4 C-2 3.01 -2 2.02 -2 1 C-1.34 0.67 -0.68 0.34 0 0 Z " fill="#90ABB1" transform="translate(76,87)"/>
<path d="M0 0 C2.31 0 4.62 0 7 0 C7.33 0.99 7.66 1.98 8 3 C6.02 3 4.04 3 2 3 C2 2.34 2 1.68 2 1 C1.34 0.67 0.68 0.34 0 0 Z " fill="#7A90A0" transform="translate(44,84)"/>
</svg>
